<svg class="animated" id="freepik_stories-bus-driver" xmlns="http://www.w3.org/2000/svg" viewBox="0 0 750 500" version="1.1" xmlns:xlink="http://www.w3.org/1999/xlink" xmlns:svgjs="http://svgjs.com/svgjs"><style>svg#freepik_stories-bus-driver:not(.animated) .animable {opacity: 0;}svg#freepik_stories-bus-driver.animated #freepik--Character--inject-3 {animation: 6s Infinite  linear floating;animation-delay: 0s;}            @keyframes floating {                0% {                    opacity: 1;                    transform: translateY(0px);                }                50% {                    transform: translateY(-10px);                }                100% {                    opacity: 1;                    transform: translateY(0px);                }            }        </style><g id="freepik--background-complete--inject-3" class="animable" style="transform-origin: 371.537px 174.505px;"><rect x="353.66" y="73.51" width="87.46" height="228.92" style="fill: rgb(235, 235, 235); transform-origin: 397.39px 187.97px;" id="el723p1sk6vra" class="animable"></rect><rect x="397.38" y="73.51" width="43.73" height="228.92" style="fill: rgb(224, 224, 224); transform-origin: 419.245px 187.97px;" id="elb8pfuleottt" class="animable"></rect><rect x="363.64" y="46.3" width="30.88" height="27.21" style="fill: rgb(235, 235, 235); transform-origin: 379.08px 59.905px;" id="el8muxfx0e4fb" class="animable"></rect><rect x="387.16" y="46.3" width="7.36" height="27.21" style="fill: rgb(224, 224, 224); transform-origin: 390.84px 59.905px;" id="elcl98ddhsqid" class="animable"></rect><rect x="346.37" y="71.92" width="97.31" height="1.59" style="fill: rgb(224, 224, 224); transform-origin: 395.025px 72.715px;" id="elnbuol4gm2pa" class="animable"></rect><rect x="370.92" y="85.37" width="7.4" height="15.61" style="fill: rgb(255, 255, 255); transform-origin: 374.62px 93.175px;" id="el98sde6sj9l" class="animable"></rect><path d="M397.38,107.11c0,.17-9.79.3-21.86.3s-21.86-.13-21.86-.3,9.78-.3,21.86-.3S397.38,107,397.38,107.11Z" style="fill: rgb(224, 224, 224); transform-origin: 375.52px 107.11px;" id="elot1t2976xtl" class="animable"></path><rect x="415.03" y="85.37" width="7.4" height="15.61" style="fill: rgb(245, 245, 245); transform-origin: 418.73px 93.175px;" id="elmdovl6a9bd" class="animable"></rect><path d="M441.49,107.11c0,.17-9.79.3-21.86.3s-21.87-.13-21.87-.3,9.79-.3,21.87-.3S441.49,107,441.49,107.11Z" style="fill: rgb(235, 235, 235); transform-origin: 419.625px 107.11px;" id="elz2g5bo4vsg" class="animable"></path><rect x="415.03" y="116.37" width="7.4" height="15.61" style="fill: rgb(245, 245, 245); transform-origin: 418.73px 124.175px;" id="el18drrf6wvfnh" class="animable"></rect><path d="M441.49,138.1c0,.17-9.79.3-21.86.3s-21.87-.13-21.87-.3,9.79-.3,21.87-.3S441.49,137.94,441.49,138.1Z" style="fill: rgb(235, 235, 235); transform-origin: 419.625px 138.1px;" id="elrduwhwd2wsf" class="animable"></path><rect x="415.03" y="148.29" width="7.4" height="15.61" style="fill: rgb(245, 245, 245); transform-origin: 418.73px 156.095px;" id="elxtgc15hjy3j" class="animable"></rect><path d="M441.49,170c0,.16-9.79.3-21.86.3s-21.87-.14-21.87-.3,9.79-.3,21.87-.3S441.49,169.86,441.49,170Z" style="fill: rgb(235, 235, 235); transform-origin: 419.625px 170px;" id="el3fmj52gx1xg" class="animable"></path><rect x="415.03" y="180.22" width="7.4" height="15.61" style="fill: rgb(245, 245, 245); transform-origin: 418.73px 188.025px;" id="el09rngllfkf4d" class="animable"></rect><path d="M441.49,202c0,.17-9.79.3-21.86.3s-21.87-.13-21.87-.3,9.79-.29,21.87-.29S441.49,201.79,441.49,202Z" style="fill: rgb(235, 235, 235); transform-origin: 419.625px 202.005px;" id="ela7e4ow27b9" class="animable"></path><rect x="415.03" y="211.23" width="7.4" height="15.61" style="fill: rgb(245, 245, 245); transform-origin: 418.73px 219.035px;" id="elei7vs0xhx6g" class="animable"></rect><path d="M441.49,233c0,.16-9.79.3-21.86.3s-21.87-.14-21.87-.3,9.79-.3,21.87-.3S441.49,232.8,441.49,233Z" style="fill: rgb(235, 235, 235); transform-origin: 419.625px 233px;" id="elfs9xjfs86km" class="animable"></path><rect x="415.03" y="242.37" width="7.4" height="15.61" style="fill: rgb(245, 245, 245); transform-origin: 418.73px 250.175px;" id="elduh94s1x268" class="animable"></rect><rect x="415.03" y="273.92" width="7.4" height="15.61" style="fill: rgb(245, 245, 245); transform-origin: 418.73px 281.725px;" id="elpsuc8tjc08g" class="animable"></rect><path d="M441.49,264.11c0,.16-9.79.29-21.86.29s-21.87-.13-21.87-.29,9.79-.3,21.87-.3S441.49,263.94,441.49,264.11Z" style="fill: rgb(235, 235, 235); transform-origin: 419.625px 264.105px;" id="elun10xrw0awj" class="animable"></path><rect x="370.92" y="116.84" width="7.4" height="15.61" style="fill: rgb(255, 255, 255); transform-origin: 374.62px 124.645px;" id="elqvmhro0facm" class="animable"></rect><path d="M397.38,138.57c0,.17-9.79.3-21.86.3s-21.86-.13-21.86-.3,9.78-.29,21.86-.29S397.38,138.41,397.38,138.57Z" style="fill: rgb(224, 224, 224); transform-origin: 375.52px 138.575px;" id="eltvc5la50wm" class="animable"></path><rect x="370.92" y="148.3" width="7.4" height="15.61" style="fill: rgb(255, 255, 255); transform-origin: 374.62px 156.105px;" id="el1i0kfkyry2u" class="animable"></rect><path d="M397.38,170c0,.16-9.79.3-21.86.3s-21.86-.14-21.86-.3,9.78-.3,21.86-.3S397.38,169.87,397.38,170Z" style="fill: rgb(224, 224, 224); transform-origin: 375.52px 170px;" id="elhmas3na41k" class="animable"></path><rect x="370.92" y="179.77" width="7.4" height="15.61" style="fill: rgb(255, 255, 255); transform-origin: 374.62px 187.575px;" id="el5xh8bk3vial" class="animable"></rect><path d="M397.38,201.5c0,.17-9.79.3-21.86.3s-21.86-.13-21.86-.3,9.78-.29,21.86-.29S397.38,201.34,397.38,201.5Z" style="fill: rgb(224, 224, 224); transform-origin: 375.52px 201.505px;" id="elpbnw6kgatco" class="animable"></path><rect x="370.92" y="211.23" width="7.4" height="15.61" style="fill: rgb(255, 255, 255); transform-origin: 374.62px 219.035px;" id="elcozaxnwceup" class="animable"></rect><path d="M397.38,233c0,.16-9.79.3-21.86.3s-21.86-.14-21.86-.3,9.78-.3,21.86-.3S397.38,232.8,397.38,233Z" style="fill: rgb(224, 224, 224); transform-origin: 375.52px 233px;" id="elqnf22ofve3" class="animable"></path><rect x="370.92" y="242.7" width="7.4" height="15.61" style="fill: rgb(255, 255, 255); transform-origin: 374.62px 250.505px;" id="elmren064j35l" class="animable"></rect><path d="M397.38,264.43c0,.17-9.79.3-21.86.3s-21.86-.13-21.86-.3,9.78-.3,21.86-.3S397.38,264.27,397.38,264.43Z" style="fill: rgb(224, 224, 224); transform-origin: 375.52px 264.43px;" id="elw3kyc9ukp4e" class="animable"></path><rect x="370.92" y="274.16" width="7.4" height="15.61" style="fill: rgb(255, 255, 255); transform-origin: 374.62px 281.965px;" id="els83d5v8z80o" class="animable"></rect><rect x="272.81" y="131.88" width="89.86" height="170.55" style="fill: rgb(224, 224, 224); transform-origin: 317.74px 217.155px;" id="elsv04ptwrk09" class="animable"></rect><rect x="320.54" y="131.88" width="42.13" height="170.55" style="fill: rgb(235, 235, 235); transform-origin: 341.605px 217.155px;" id="elmgni5g61noh" class="animable"></rect><rect x="291.65" y="147.93" width="8.08" height="19.63" style="fill: rgb(245, 245, 245); transform-origin: 295.69px 157.745px;" id="elsd8uwlqgm" class="animable"></rect><rect x="291.65" y="224.75" width="8.08" height="19.63" style="fill: rgb(245, 245, 245); transform-origin: 295.69px 234.565px;" id="elbuayjjqygiv" class="animable"></rect><path d="M320.54,175.26c0,.17-10.69.31-23.87.31s-23.86-.14-23.86-.31,10.68-.31,23.86-.31S320.54,175.09,320.54,175.26Z" style="fill: rgb(245, 245, 245); transform-origin: 296.675px 175.26px;" id="elkq2gylu4h9p" class="animable"></path><rect x="291.65" y="186.63" width="8.08" height="19.63" style="fill: rgb(245, 245, 245); transform-origin: 295.69px 196.445px;" id="ele57r295vnj" class="animable"></rect><path d="M320.54,214c0,.17-10.69.3-23.87.3s-23.86-.13-23.86-.3,10.68-.31,23.86-.31S320.54,213.8,320.54,214Z" style="fill: rgb(245, 245, 245); transform-origin: 296.675px 213.995px;" id="elspb7o11evc" class="animable"></path><rect x="329.48" y="147.93" width="8.08" height="19.63" style="fill: rgb(224, 224, 224); transform-origin: 333.52px 157.745px;" id="elpiuv54sdydd" class="animable"></rect><rect x="347.01" y="147.93" width="8.08" height="19.63" style="fill: rgb(224, 224, 224); transform-origin: 351.05px 157.745px;" id="el6he4mhowhl2" class="animable"></rect><rect x="329.48" y="185.17" width="8.08" height="19.63" style="fill: rgb(224, 224, 224); transform-origin: 333.52px 194.985px;" id="elchu8p2obnud" class="animable"></rect><rect x="347.01" y="185.17" width="8.08" height="19.63" style="fill: rgb(224, 224, 224); transform-origin: 351.05px 194.985px;" id="elnxap5l13jq9" class="animable"></rect><rect x="329.48" y="222.42" width="8.08" height="19.63" style="fill: rgb(224, 224, 224); transform-origin: 333.52px 232.235px;" id="el2m2pacnexlw" class="animable"></rect><rect x="347.01" y="222.42" width="8.08" height="19.63" style="fill: rgb(224, 224, 224); transform-origin: 351.05px 232.235px;" id="el6pe9dg7dckh" class="animable"></rect><rect x="266.05" y="127.75" width="103.37" height="4.27" style="fill: rgb(224, 224, 224); transform-origin: 317.735px 129.885px;" id="elm7xdlqhe3ec" class="animable"></rect><path d="M363.3,132.43c0,.17-20.09.31-44.86.31s-44.86-.14-44.86-.31,20.08-.31,44.86-.31S363.3,132.26,363.3,132.43Z" style="fill: rgb(235, 235, 235); transform-origin: 318.44px 132.43px;" id="elx5ewimms3nb" class="animable"></path><rect x="604.25" y="71.08" width="73" height="231.34" style="fill: rgb(245, 245, 245); transform-origin: 640.75px 186.75px;" id="elis8rvehlj8" class="animable"></rect><rect x="640.75" y="71.08" width="36.5" height="230.7" style="fill: rgb(235, 235, 235); transform-origin: 659px 186.43px;" id="elj6kazw1pqvj" class="animable"></rect><rect x="612.59" y="48.37" width="25.78" height="22.71" style="fill: rgb(245, 245, 245); transform-origin: 625.48px 59.725px;" id="el8dx96871fsi" class="animable"></rect><rect x="632.22" y="48.37" width="6.14" height="22.71" style="fill: rgb(235, 235, 235); transform-origin: 635.29px 59.725px;" id="el17fgff28oq2" class="animable"></rect><polyline points="598.17 71.08 598.17 69.76 679.39 69.76 679.39 71.08" style="fill: rgb(224, 224, 224); transform-origin: 638.78px 70.42px;" id="els4rylmjmpi" class="animable"></polyline><rect x="618.66" y="80.99" width="6.18" height="13.03" style="fill: rgb(250, 250, 250); transform-origin: 621.75px 87.505px;" id="ell5qtqxjxerj" class="animable"></rect><path d="M640.75,99.13c0,.14-8.17.25-18.25.25s-18.25-.11-18.25-.25,8.17-.25,18.25-.25S640.75,99,640.75,99.13Z" style="fill: rgb(224, 224, 224); transform-origin: 622.5px 99.13px;" id="ely4for49h4m" class="animable"></path><rect x="655.48" y="80.99" width="6.18" height="13.03" style="fill: rgb(224, 224, 224); transform-origin: 658.57px 87.505px;" id="eljdcyqi9pguo" class="animable"></rect><path d="M677.57,99.13c0,.14-8.17.25-18.25.25s-18.25-.11-18.25-.25,8.17-.25,18.25-.25S677.57,99,677.57,99.13Z" style="fill: rgb(224, 224, 224); transform-origin: 659.32px 99.13px;" id="elxd2nk73y5jo" class="animable"></path><rect x="655.48" y="106.86" width="6.18" height="13.03" style="fill: rgb(224, 224, 224); transform-origin: 658.57px 113.375px;" id="el2yzsoolhrvq" class="animable"></rect><path d="M677.57,125c0,.14-8.17.25-18.25.25s-18.25-.11-18.25-.25,8.17-.25,18.25-.25S677.57,124.86,677.57,125Z" style="fill: rgb(224, 224, 224); transform-origin: 659.32px 125px;" id="el61alsggehcb" class="animable"></path><rect x="655.48" y="133.5" width="6.18" height="13.03" style="fill: rgb(224, 224, 224); transform-origin: 658.57px 140.015px;" id="el29xhspfd5f2" class="animable"></rect><path d="M677.57,151.64c0,.14-8.17.25-18.25.25s-18.25-.11-18.25-.25,8.17-.24,18.25-.24S677.57,151.51,677.57,151.64Z" style="fill: rgb(224, 224, 224); transform-origin: 659.32px 151.645px;" id="el1pbdgxakrv3" class="animable"></path><rect x="655.48" y="160.15" width="6.18" height="13.03" style="fill: rgb(224, 224, 224); transform-origin: 658.57px 166.665px;" id="elzbj3t9s762p" class="animable"></rect><path d="M677.57,178.29c0,.14-8.17.25-18.25.25s-18.25-.11-18.25-.25,8.17-.25,18.25-.25S677.57,178.15,677.57,178.29Z" style="fill: rgb(224, 224, 224); transform-origin: 659.32px 178.29px;" id="eljzw66lvv3g" class="animable"></path><rect x="655.48" y="186.04" width="6.18" height="13.03" style="fill: rgb(224, 224, 224); transform-origin: 658.57px 192.555px;" id="elhotqh1ogyv" class="animable"></rect><path d="M677.57,204.18c0,.13-8.17.25-18.25.25s-18.25-.12-18.25-.25,8.17-.25,18.25-.25S677.57,204,677.57,204.18Z" style="fill: rgb(224, 224, 224); transform-origin: 659.32px 204.18px;" id="elid6nk7doxcp" class="animable"></path><rect x="655.48" y="212.02" width="6.18" height="13.03" style="fill: rgb(224, 224, 224); transform-origin: 658.57px 218.535px;" id="elniukj5vdkpl" class="animable"></rect><rect x="655.48" y="238.35" width="6.18" height="13.03" style="fill: rgb(224, 224, 224); transform-origin: 658.57px 244.865px;" id="elx2l2h27jwea" class="animable"></rect><path d="M677.57,230.17c0,.13-8.17.25-18.25.25s-18.25-.12-18.25-.25,8.17-.25,18.25-.25S677.57,230,677.57,230.17Z" style="fill: rgb(224, 224, 224); transform-origin: 659.32px 230.17px;" id="elnltyeol7ldp" class="animable"></path><rect x="618.66" y="107.25" width="6.18" height="13.03" style="fill: rgb(250, 250, 250); transform-origin: 621.75px 113.765px;" id="elh6rgwml8vgt" class="animable"></rect><path d="M640.75,125.39c0,.14-8.17.25-18.25.25s-18.25-.11-18.25-.25,8.17-.25,18.25-.25S640.75,125.26,640.75,125.39Z" style="fill: rgb(224, 224, 224); transform-origin: 622.5px 125.39px;" id="el0avlob4jj9q" class="animable"></path><rect x="618.66" y="133.51" width="6.18" height="13.03" style="fill: rgb(250, 250, 250); transform-origin: 621.75px 140.025px;" id="elf1u78i6cyrd" class="animable"></rect><path d="M640.75,151.65c0,.14-8.17.25-18.25.25s-18.25-.11-18.25-.25,8.17-.24,18.25-.24S640.75,151.52,640.75,151.65Z" style="fill: rgb(224, 224, 224); transform-origin: 622.5px 151.655px;" id="elm6ea8ai44o" class="animable"></path><rect x="618.66" y="159.77" width="6.18" height="13.03" style="fill: rgb(250, 250, 250); transform-origin: 621.75px 166.285px;" id="elxrk0f1f6x1e" class="animable"></rect><path d="M640.75,177.92c0,.13-8.17.24-18.25.24s-18.25-.11-18.25-.24,8.17-.25,18.25-.25S640.75,177.78,640.75,177.92Z" style="fill: rgb(224, 224, 224); transform-origin: 622.5px 177.915px;" id="ell9qmhz406p" class="animable"></path><rect x="618.66" y="186.04" width="6.18" height="13.03" style="fill: rgb(250, 250, 250); transform-origin: 621.75px 192.555px;" id="elgsmd05wh0eu" class="animable"></rect><path d="M640.75,204.18c0,.13-8.17.25-18.25.25s-18.25-.12-18.25-.25,8.17-.25,18.25-.25S640.75,204,640.75,204.18Z" style="fill: rgb(224, 224, 224); transform-origin: 622.5px 204.18px;" id="eleu471gzgod" class="animable"></path><rect x="618.66" y="212.3" width="6.18" height="13.03" style="fill: rgb(250, 250, 250); transform-origin: 621.75px 218.815px;" id="elta7gxcwk4kf" class="animable"></rect><path d="M640.75,230.44c0,.14-8.17.25-18.25.25s-18.25-.11-18.25-.25,8.17-.25,18.25-.25S640.75,230.3,640.75,230.44Z" style="fill: rgb(224, 224, 224); transform-origin: 622.5px 230.44px;" id="elf82zwz7rap" class="animable"></path><rect x="618.66" y="238.56" width="6.18" height="13.03" style="fill: rgb(250, 250, 250); transform-origin: 621.75px 245.075px;" id="el9g6d8udtl88" class="animable"></rect><rect x="113.18" y="93.97" width="65.77" height="208.45" style="fill: rgb(245, 245, 245); transform-origin: 146.065px 198.195px;" id="el430ty3otuui" class="animable"></rect><rect x="146.07" y="93.97" width="32.89" height="207.88" style="fill: rgb(235, 235, 235); transform-origin: 162.515px 197.91px;" id="elfm97pc8f90k" class="animable"></rect><rect x="120.69" y="73.51" width="23.23" height="20.46" style="fill: rgb(245, 245, 245); transform-origin: 132.305px 83.74px;" id="elw8m37x8srfs" class="animable"></rect><rect x="138.38" y="73.51" width="5.54" height="20.46" style="fill: rgb(235, 235, 235); transform-origin: 141.15px 83.74px;" id="eluaneb1msrqj" class="animable"></rect><polyline points="107.7 93.97 107.7 92.78 180.88 92.78 180.88 93.97" style="fill: rgb(224, 224, 224); transform-origin: 144.29px 93.375px;" id="elt5ro9w3khld" class="animable"></polyline><rect x="126.16" y="102.9" width="5.57" height="11.74" style="fill: rgb(250, 250, 250); transform-origin: 128.945px 108.77px;" id="elq3i8tvs643e" class="animable"></rect><path d="M146.07,119.24c0,.13-7.36.23-16.44.23s-16.45-.1-16.45-.23,7.36-.22,16.45-.22S146.07,119.12,146.07,119.24Z" style="fill: rgb(224, 224, 224); transform-origin: 129.625px 119.245px;" id="elgcz6xdra8q7" class="animable"></path><rect x="159.34" y="102.9" width="5.57" height="11.74" style="fill: rgb(224, 224, 224); transform-origin: 162.125px 108.77px;" id="elfitv6npaxio" class="animable"></rect><path d="M179.24,119.24c0,.13-7.36.23-16.44.23s-16.45-.1-16.45-.23,7.37-.22,16.45-.22S179.24,119.12,179.24,119.24Z" style="fill: rgb(224, 224, 224); transform-origin: 162.795px 119.245px;" id="elok8fngbodoa" class="animable"></path><rect x="159.34" y="126.2" width="5.57" height="11.74" style="fill: rgb(224, 224, 224); transform-origin: 162.125px 132.07px;" id="elvnmz2g0c36" class="animable"></rect><path d="M179.24,142.55c0,.13-7.36.23-16.44.23s-16.45-.1-16.45-.23,7.37-.22,16.45-.22S179.24,142.43,179.24,142.55Z" style="fill: rgb(224, 224, 224); transform-origin: 162.795px 142.555px;" id="elhvgbsivurrt" class="animable"></path><rect x="159.34" y="150.22" width="5.57" height="11.74" style="fill: rgb(224, 224, 224); transform-origin: 162.125px 156.09px;" id="el290kqfpno67" class="animable"></rect><path d="M179.24,166.56c0,.13-7.36.23-16.44.23s-16.45-.1-16.45-.23,7.37-.22,16.45-.22S179.24,166.44,179.24,166.56Z" style="fill: rgb(224, 224, 224); transform-origin: 162.795px 166.565px;" id="el5873juab4u9" class="animable"></path><rect x="159.34" y="174.23" width="5.57" height="11.74" style="fill: rgb(224, 224, 224); transform-origin: 162.125px 180.1px;" id="elpgmdr2qd1ia" class="animable"></rect><path d="M179.24,190.57c0,.13-7.36.23-16.44.23s-16.45-.1-16.45-.23,7.37-.22,16.45-.22S179.24,190.45,179.24,190.57Z" style="fill: rgb(224, 224, 224); transform-origin: 162.795px 190.575px;" id="elcbvvzvay8f" class="animable"></path><rect x="159.34" y="197.55" width="5.57" height="11.74" style="fill: rgb(224, 224, 224); transform-origin: 162.125px 203.42px;" id="elnso39ynlsl8" class="animable"></rect><path d="M179.24,213.9c0,.12-7.36.22-16.44.22s-16.45-.1-16.45-.22,7.37-.23,16.45-.23S179.24,213.77,179.24,213.9Z" style="fill: rgb(224, 224, 224); transform-origin: 162.795px 213.895px;" id="els3ysgqkie8k" class="animable"></path><rect x="159.34" y="220.97" width="5.57" height="11.74" style="fill: rgb(224, 224, 224); transform-origin: 162.125px 226.84px;" id="elylvknil0jka" class="animable"></rect><rect x="159.34" y="244.69" width="5.57" height="11.74" style="fill: rgb(224, 224, 224); transform-origin: 162.125px 250.56px;" id="ellem8rllf01" class="animable"></rect><path d="M179.24,237.32c0,.12-7.36.22-16.44.22s-16.45-.1-16.45-.22,7.37-.23,16.45-.23S179.24,237.19,179.24,237.32Z" style="fill: rgb(224, 224, 224); transform-origin: 162.795px 237.315px;" id="el07lr7anl7pi2" class="animable"></path><rect x="126.16" y="126.56" width="5.57" height="11.74" style="fill: rgb(250, 250, 250); transform-origin: 128.945px 132.43px;" id="el05qk3tof2gn2" class="animable"></rect><path d="M146.07,142.91c0,.12-7.36.22-16.44.22s-16.45-.1-16.45-.22,7.36-.23,16.45-.23S146.07,142.78,146.07,142.91Z" style="fill: rgb(224, 224, 224); transform-origin: 129.625px 142.905px;" id="elktaxztlhm7q" class="animable"></path><rect x="126.16" y="150.22" width="5.57" height="11.74" style="fill: rgb(250, 250, 250); transform-origin: 128.945px 156.09px;" id="elnsl5quagi0o" class="animable"></rect><path d="M146.07,166.57c0,.12-7.36.22-16.44.22s-16.45-.1-16.45-.22,7.36-.22,16.45-.22S146.07,166.45,146.07,166.57Z" style="fill: rgb(224, 224, 224); transform-origin: 129.625px 166.57px;" id="el3fuzvouqc47" class="animable"></path><rect x="126.16" y="173.89" width="5.57" height="11.74" style="fill: rgb(250, 250, 250); transform-origin: 128.945px 179.76px;" id="eluebvp1iog9" class="animable"></rect><path d="M146.07,190.23c0,.13-7.36.23-16.44.23s-16.45-.1-16.45-.23,7.36-.22,16.45-.22S146.07,190.11,146.07,190.23Z" style="fill: rgb(224, 224, 224); transform-origin: 129.625px 190.235px;" id="elvdpmctpc31f" class="animable"></path><rect x="126.16" y="197.55" width="5.57" height="11.74" style="fill: rgb(250, 250, 250); transform-origin: 128.945px 203.42px;" id="el5fh7d0xgoah" class="animable"></rect><path d="M146.07,213.9c0,.12-7.36.22-16.44.22s-16.45-.1-16.45-.22,7.36-.23,16.45-.23S146.07,213.77,146.07,213.9Z" style="fill: rgb(224, 224, 224); transform-origin: 129.625px 213.895px;" id="elsqgp5awwyy" class="animable"></path><rect x="126.16" y="221.21" width="5.57" height="11.74" style="fill: rgb(250, 250, 250); transform-origin: 128.945px 227.08px;" id="elrjtx0pjwlrq" class="animable"></rect><path d="M146.07,237.56c0,.12-7.36.22-16.44.22s-16.45-.1-16.45-.22,7.36-.22,16.45-.22S146.07,237.44,146.07,237.56Z" style="fill: rgb(224, 224, 224); transform-origin: 129.625px 237.56px;" id="elzo12ahx2r8n" class="animable"></path><rect x="126.16" y="244.88" width="5.57" height="11.74" style="fill: rgb(250, 250, 250); transform-origin: 128.945px 250.75px;" id="elm6o0k8jgg3o" class="animable"></rect><polygon points="609.79 302.7 503.75 302.7 503.29 135.11 609.33 135.11 609.79 302.7" style="fill: rgb(235, 235, 235); transform-origin: 556.54px 218.905px;" id="elxldjovkgu0s" class="animable"></polygon><rect x="556.31" y="135.11" width="53.02" height="167.6" style="fill: rgb(224, 224, 224); transform-origin: 582.82px 218.91px;" id="elh70s8ytdmln" class="animable"></rect><rect x="515.39" y="102.11" width="37.45" height="32.99" style="fill: rgb(235, 235, 235); transform-origin: 534.115px 118.605px;" id="elavy3w2kllqc" class="animable"></rect><rect x="543.92" y="102.11" width="8.92" height="32.99" style="fill: rgb(224, 224, 224); transform-origin: 548.38px 118.605px;" id="eldtxchzqgv8n" class="animable"></rect><rect x="494.45" y="133.18" width="117.98" height="1.92" style="fill: rgb(224, 224, 224); transform-origin: 553.44px 134.14px;" id="el0txezam6q9li" class="animable"></rect><rect x="524.22" y="149.5" width="8.98" height="18.93" style="fill: rgb(255, 255, 255); transform-origin: 528.71px 158.965px;" id="elos2kqg5wkx" class="animable"></rect><path d="M556.31,175.85c0,.2-11.87.36-26.51.36s-26.51-.16-26.51-.36,11.86-.36,26.51-.36S556.31,175.65,556.31,175.85Z" style="fill: rgb(224, 224, 224); transform-origin: 529.8px 175.85px;" id="elu73mq243a58" class="animable"></path><rect x="577.7" y="149.5" width="8.98" height="18.93" style="fill: rgb(245, 245, 245); transform-origin: 582.19px 158.965px;" id="eloxkezjk86e" class="animable"></rect><path d="M609.79,175.85c0,.2-11.87.36-26.51.36s-26.51-.16-26.51-.36,11.87-.36,26.51-.36S609.79,175.65,609.79,175.85Z" style="fill: rgb(235, 235, 235); transform-origin: 583.28px 175.85px;" id="el3nauhwdp9bf" class="animable"></path><rect x="577.7" y="187.07" width="8.98" height="18.93" style="fill: rgb(245, 245, 245); transform-origin: 582.19px 196.535px;" id="eli768pusaiya" class="animable"></rect><path d="M609.79,213.43c0,.2-11.87.36-26.51.36s-26.51-.16-26.51-.36,11.87-.36,26.51-.36S609.79,213.23,609.79,213.43Z" style="fill: rgb(235, 235, 235); transform-origin: 583.28px 213.43px;" id="eliljkpotqkna" class="animable"></path><rect x="577.7" y="225.79" width="8.98" height="18.93" style="fill: rgb(245, 245, 245); transform-origin: 582.19px 235.255px;" id="elihoxd6x368b" class="animable"></rect><path d="M609.79,252.14c0,.2-11.87.36-26.51.36s-26.51-.16-26.51-.36,11.87-.36,26.51-.36S609.79,251.94,609.79,252.14Z" style="fill: rgb(235, 235, 235); transform-origin: 583.28px 252.14px;" id="elivv1ob7nsg" class="animable"></path><rect x="577.7" y="264.5" width="8.98" height="18.93" style="fill: rgb(245, 245, 245); transform-origin: 582.19px 273.965px;" id="elmnm34taw2gb" class="animable"></rect><path d="M609.79,290.85c0,.2-11.87.36-26.51.36s-26.51-.16-26.51-.36,11.87-.36,26.51-.36S609.79,290.65,609.79,290.85Z" style="fill: rgb(235, 235, 235); transform-origin: 583.28px 290.85px;" id="elho3sa83yng4" class="animable"></path><rect x="524.22" y="187.65" width="8.98" height="18.93" style="fill: rgb(255, 255, 255); transform-origin: 528.71px 197.115px;" id="elr45twm0k1md" class="animable"></rect><path d="M556.31,214c0,.2-11.87.36-26.51.36s-26.51-.16-26.51-.36,11.86-.36,26.51-.36S556.31,213.8,556.31,214Z" style="fill: rgb(224, 224, 224); transform-origin: 529.8px 214px;" id="elajf1ed76qrs" class="animable"></path><rect x="524.22" y="225.8" width="8.98" height="18.93" style="fill: rgb(255, 255, 255); transform-origin: 528.71px 235.265px;" id="elrhe7vtnvsmb" class="animable"></rect><path d="M556.31,252.15c0,.2-11.87.37-26.51.37s-26.51-.17-26.51-.37,11.86-.36,26.51-.36S556.31,252,556.31,252.15Z" style="fill: rgb(224, 224, 224); transform-origin: 529.8px 252.155px;" id="elw4n6s9w9vkl" class="animable"></path><rect x="524.22" y="263.95" width="8.98" height="18.93" style="fill: rgb(255, 255, 255); transform-origin: 528.71px 273.415px;" id="el8elljhqo676" class="animable"></rect><path d="M556.31,290.31c0,.2-11.87.36-26.51.36s-26.51-.16-26.51-.36,11.86-.37,26.51-.37S556.31,290.11,556.31,290.31Z" style="fill: rgb(224, 224, 224); transform-origin: 529.8px 290.305px;" id="elth30864817" class="animable"></path><path d="M647.35,302.42c0,.15-128.91.26-287.88.26s-287.91-.11-287.91-.26,128.88-.26,287.91-.26S647.35,302.28,647.35,302.42Z" style="fill: rgb(224, 224, 224); transform-origin: 359.455px 302.42px;" id="elna12fmltyfd" class="animable"></path><path d="M125,136.79c.47-3.4-4.33-6.2-8-6.49-1.72-.14-3.51.12-5.14-.45-3.53-1.23-4.94-5.8-8.39-7.25-2.58-1.09-5.55-.12-8,1.14s-5,2.84-7.76,3c-2.43.15-5.07-.75-7.19.44-1.59.88-2.42,2.71-3.88,3.78a9.22,9.22,0,0,1-5.06,1.38,14.1,14.1,0,0,0-5.22.85c-1.61.74-3,2.44-2.61,4.19Z" style="fill: rgb(245, 245, 245); transform-origin: 94.3579px 129.754px;" id="el9aqixpsktkr" class="animable"></path><path d="M263.3,80.54c.46-3.41-4.34-6.21-8-6.5-1.72-.14-3.51.12-5.14-.44-3.54-1.24-5-5.8-8.4-7.26-2.58-1.08-5.55-.12-8.05,1.14s-5,2.84-7.76,3c-2.43.16-5.07-.74-7.19.44-1.58.89-2.41,2.71-3.87,3.79a9.22,9.22,0,0,1-5.07,1.37,14.56,14.56,0,0,0-5.22.85c-1.61.74-2.94,2.45-2.61,4.19Z" style="fill: rgb(245, 245, 245); transform-origin: 232.635px 73.4959px;" id="eluofxfyc20d8" class="animable"></path><path d="M525.09,79c.47-3.4-4.34-6.21-8-6.5-1.72-.14-3.51.13-5.14-.44-3.54-1.23-4.95-5.8-8.4-7.25-2.58-1.09-5.55-.12-8.05,1.14s-5,2.84-7.76,3c-2.43.15-5.07-.75-7.19.44-1.58.88-2.41,2.71-3.87,3.78a9.14,9.14,0,0,1-5.07,1.37,14.35,14.35,0,0,0-5.22.86c-1.61.74-2.94,2.44-2.61,4.19Z" style="fill: rgb(245, 245, 245); transform-origin: 494.426px 71.9637px;" id="elfqi32dsoz7g" class="animable"></path></g><g id="freepik--Floor--inject-3" class="animable" style="transform-origin: 371px 462.79px;"><path d="M719,462.79c0,.15-155.81.26-348,.26s-348-.11-348-.26,155.77-.26,348-.26S719,462.65,719,462.79Z" style="fill: rgb(38, 50, 56); transform-origin: 371px 462.79px;" id="el0ppdb7olzl8" class="animable"></path></g><g id="freepik--Character--inject-3" class="animable animator-active" style="transform-origin: 380.869px 312.08px;"><rect x="63.23" y="362" width="117.05" height="76.09" style="fill: rgb(40, 42, 54); transform-origin: 121.755px 400.045px;" id="elkdkzp07xfdh" class="animable"></rect><path d="M180.3,438.11H63.2V362H180.3Zm-117-.05h117V362h-117Z" style="fill: rgb(38, 50, 56); transform-origin: 121.75px 400.055px;" id="eluphzlovpyi" class="animable"></path><g id="elrzjwogp8at"><g style="opacity: 0.3; transform-origin: 121.755px 400.045px;" class="animable"><rect x="63.23" y="362" width="117.05" height="76.09" id="el1lafcxdyo7p" class="animable" style="transform-origin: 121.755px 400.045px;"></rect></g></g><path d="M675.74,170.45H58.63c-13.9,0-25.17,8.87-25.17,19.81V418.5c0,10.93,11.27,19.8,25.17,19.8H85.46a46.29,46.29,0,1,1,86,0H675.74c13.9,0,25.17-8.87,25.17-19.8V190.26C700.91,179.32,689.64,170.45,675.74,170.45Z" style="fill: rgb(40, 42, 54); transform-origin: 367.185px 304.375px;" id="elwxshqgnntvk" class="animable"></path><rect x="319.76" y="188.7" width="247.06" height="148.44" style="fill: rgb(69, 90, 100); transform-origin: 443.29px 262.92px;" id="elkgvhlk4eg5g" class="animable"></rect><path d="M33.89,189c0-.14,149.42-.26,333.71-.26s333.74.12,333.74.26-149.4.26-333.74.26S33.89,189.1,33.89,189Z" style="fill: rgb(38, 50, 56); transform-origin: 367.615px 189px;" id="elbppz2ob75um" class="animable"></path><rect x="369.67" y="160.81" width="177.59" height="14.71" rx="7.36" style="fill: rgb(40, 42, 54); transform-origin: 458.465px 168.165px;" id="el4sur1hwoxnu" class="animable"></rect><rect x="63.27" y="160.81" width="86.46" height="14.71" rx="7.36" style="fill: rgb(40, 42, 54); transform-origin: 106.5px 168.165px;" id="el3l6h3vs0vzu" class="animable"></rect><g id="elsz3xc0xjvrl"><g style="opacity: 0.3; transform-origin: 498.89px 398.93px;" class="animable"><rect x="448" y="359.56" width="101.78" height="78.74" id="elclgxymorrgn" class="animable" style="transform-origin: 498.89px 398.93px;"></rect></g></g><path d="M702.89,412.71H684.68a5.79,5.79,0,0,1-5.79-5.79h0a5.8,5.8,0,0,1,5.79-5.8h18.21a5.8,5.8,0,0,1,5.79,5.8h0A5.79,5.79,0,0,1,702.89,412.71Z" style="fill: rgb(69, 90, 100); transform-origin: 693.785px 406.915px;" id="el5iyajwf3q04" class="animable"></path><path d="M700.91,397.36h-9.18a14.9,14.9,0,0,1-14.89-14.9h0a14.9,14.9,0,0,1,14.89-14.9h9.18Z" style="fill: rgb(235, 235, 235); transform-origin: 688.875px 382.46px;" id="ellgfzhedgbje" class="animable"></path><path d="M700.91,397.36a4.83,4.83,0,0,1,0-.59c0-.42,0-1,0-1.66,0-1.48,0-3.56-.06-6.17,0-5.29-.07-12.7-.12-21.38l.24.25h-8.53a14.89,14.89,0,0,0-8.54,2.33,14.64,14.64,0,0,0-5.81,7.19,13.5,13.5,0,0,0-.91,4.35,14,14,0,0,0,.39,4.26,14.82,14.82,0,0,0,3.81,6.86,15.16,15.16,0,0,0,5.83,3.63,16.74,16.74,0,0,0,5.64.78l4.35,0,2.77.05.74,0,.26,0s-.07,0-.22,0l-.71,0-2.75.05-4.41.06a16.73,16.73,0,0,1-5.79-.72,15.48,15.48,0,0,1-6-3.68,15.19,15.19,0,0,1-4-7.05,14.54,14.54,0,0,1-.41-4.39,15.94,15.94,0,0,1,.26-2.27,17.91,17.91,0,0,1,.66-2.24,15.13,15.13,0,0,1,6-7.45,15.47,15.47,0,0,1,8.83-2.4h8.78v.24c0,8.75-.08,16.21-.11,21.54,0,2.58,0,4.65-.07,6.12,0,.67,0,1.2,0,1.61A3.28,3.28,0,0,1,700.91,397.36Z" style="fill: rgb(38, 50, 56); transform-origin: 688.932px 382.276px;" id="eldgqj4n196x5" class="animable"></path><path d="M75.16,404.83H58.27a6.45,6.45,0,0,1-6.45-6.45h0a6.45,6.45,0,0,1,6.45-6.45H75.16a6.45,6.45,0,0,1,6.45,6.45h0A6.45,6.45,0,0,1,75.16,404.83Z" style="fill: rgb(245, 245, 245); transform-origin: 66.715px 398.38px;" id="el3hc3kya44z6" class="animable"></path><path d="M75.16,404.83a8,8,0,0,0,2.77-.74,6.33,6.33,0,0,0,3.45-6.44A6.24,6.24,0,0,0,76,392.21c-1-.1-2.12,0-3.22,0l-14.46,0a6.2,6.2,0,0,0-4.86,10.05,6.32,6.32,0,0,0,2.46,1.88,7.12,7.12,0,0,0,2.91.5l5.49,0,8,.08,2.16,0a4.48,4.48,0,0,1,.76.05,3.75,3.75,0,0,1-.76.06l-2.16,0-8,.09-5.49,0a7.31,7.31,0,0,1-3.09-.51,6.69,6.69,0,0,1-3.57-8.84,6.71,6.71,0,0,1,6.15-4l14.46,0c1.13,0,2.17-.05,3.28.07a6.59,6.59,0,0,1,2.93,1.13,6.68,6.68,0,0,1,2.81,4.72,6.75,6.75,0,0,1-1.1,4.43,6.47,6.47,0,0,1-4.74,2.8c-.24,0-.43,0-.56,0S75.16,404.84,75.16,404.83Z" style="fill: rgb(38, 50, 56); transform-origin: 66.7261px 398.245px;" id="elfikaatcj046" class="animable"></path><path d="M724.83,211.49h-3c0-13.7-8.05-24.85-18-24.85h-33v-3h33C715.43,183.64,724.83,196.14,724.83,211.49Z" style="fill: rgb(40, 42, 54); transform-origin: 697.83px 197.565px;" id="elccbpwqg2w4h" class="animable"></path><rect x="713.44" y="203.49" width="14.32" height="75" rx="3.41" style="fill: rgb(40, 42, 54); transform-origin: 720.6px 240.99px;" id="elkd5sewtolds" class="animable"></rect><path d="M724.35,278.49A3.84,3.84,0,0,0,726,278a3.31,3.31,0,0,0,1.37-1.53,6.38,6.38,0,0,0,.29-2.82c0-4.4,0-10.72-.08-18.52s0-17.13-.06-27.46c0-5.16,0-10.59,0-16.21v-4.25a3.2,3.2,0,0,0-2-3.22,4.89,4.89,0,0,0-2-.24h-6.65a3.17,3.17,0,0,0-3,2.32,9.16,9.16,0,0,0-.11,2.12v2.19c0,2.9,0,5.76,0,8.58,0,5.62,0,11,0,16.21,0,10.34,0,19.64-.06,27.47,0,3.9,0,7.44,0,10.54,0,.77,0,1.54,0,2.24a3.27,3.27,0,0,0,2.29,2.81,5.67,5.67,0,0,0,1.68.16l5,.05,1.31,0,.45,0-.45,0-1.31,0-5,0a5.62,5.62,0,0,1-1.75-.14,3.57,3.57,0,0,1-2.49-3c0-.74,0-1.47,0-2.26,0-3.1,0-6.64,0-10.54,0-7.83,0-17.13,0-27.47,0-5.16,0-10.59,0-16.21V207.09a3.9,3.9,0,0,1,.13-1.16,3.69,3.69,0,0,1,3.54-2.7h6.65a5.52,5.52,0,0,1,2.25.28,3.75,3.75,0,0,1,2.27,3.7c0,1.42,0,2.84,0,4.25,0,5.62,0,11,0,16.21,0,10.33,0,19.64-.06,27.46s-.06,14.12-.08,18.52c0,.54,0,1.06,0,1.55a3.46,3.46,0,0,1-1.79,2.89,3.3,3.3,0,0,1-1.25.4A2.54,2.54,0,0,1,724.35,278.49Z" style="fill: rgb(38, 50, 56); transform-origin: 720.853px 240.864px;" id="elppk90ct2gvo" class="animable"></path><polygon points="183.88 341.49 129.31 340.09 83.41 286.49 45.6 286.49 45.6 188.96 183.88 188.96 183.88 341.49" style="fill: rgb(69, 90, 100); transform-origin: 114.74px 265.225px;" id="el1nli5fjaq8j" class="animable"></polygon><path d="M183.88,341.49s0-.25,0-.73,0-1.2,0-2.13c0-1.88,0-4.66,0-8.27,0-7.23,0-17.8-.06-31.2,0-26.78-.07-64.88-.12-110.2l.23.23-123.11,0H45.6l.26-.26c0,34.65,0,67.58,0,97.53l-.24-.24,37.81,0h.1l.07.08L129.43,340l-.11-.06,40.19,1.12,10.67.31,2.76.09.94,0H183l-2.73-.05-10.64-.24-40.29-.95h-.07l-.05-.05L83.25,286.63l.16.08-37.81,0h-.24v-.24c0-29.95,0-62.88,0-97.53v-.26H60.77l123.11,0h.23V189c0,45.38-.08,83.53-.11,110.35,0,13.38-.05,23.93-.07,31.15,0,3.59,0,6.35,0,8.22,0,.92,0,1.62,0,2.1S183.88,341.49,183.88,341.49Z" style="fill: rgb(38, 50, 56); transform-origin: 114.735px 265.085px;" id="elox7qozp86ed" class="animable"></path><g id="elswkycasctnd"><circle cx="498.74" cy="422.06" r="40.27" style="fill: rgb(38, 50, 56); transform-origin: 498.74px 422.06px; transform: rotate(-89.07deg);" class="animable"></circle></g><path d="M458.48,421.37s0,.07,0,.11A40.27,40.27,0,1,0,539,422.64v-.11Z" style="fill: rgb(38, 50, 56); transform-origin: 498.73px 442.192px;" id="elshnnkofjwq" class="animable"></path><path d="M470.47,421.65a28.27,28.27,0,1,0,28.68-27.87A28.28,28.28,0,0,0,470.47,421.65Z" style="fill: rgb(250, 250, 250); transform-origin: 498.737px 422.047px;" id="elhj4wuhe4kdd" class="animable"></path><path d="M499.15,393.78a28.27,28.27,0,0,0-28.68,27.87l56.54.81A28.28,28.28,0,0,0,499.15,393.78Z" style="fill: rgb(224, 224, 224); transform-origin: 498.741px 408.118px;" id="el5x3eep0xqpk" class="animable"></path><path d="M481.52,421.81a17.22,17.22,0,1,0,17.47-17A17.22,17.22,0,0,0,481.52,421.81Z" style="fill: rgb(38, 50, 56); transform-origin: 498.739px 422.028px;" id="el01ktkpb9teeq" class="animable"></path><g id="elisj0u6fdy7"><circle cx="128.3" cy="422.46" r="40.27" style="fill: rgb(38, 50, 56); transform-origin: 128.3px 422.46px; transform: rotate(-89.11deg);" class="animable"></circle></g><path d="M88,421.78v.1a40.27,40.27,0,0,0,80.54,1.17s0-.07,0-.11Z" style="fill: rgb(38, 50, 56); transform-origin: 128.268px 442.25px;" id="elpina1sm49" class="animable"></path><path d="M100,422.06a28.28,28.28,0,1,0,28.68-27.87A28.29,28.29,0,0,0,100,422.06Z" style="fill: rgb(250, 250, 250); transform-origin: 128.277px 422.467px;" id="eldjgtlvnttlv" class="animable"></path><path d="M128.7,394.19A28.29,28.29,0,0,0,100,422.06l56.55.81A28.29,28.29,0,0,0,128.7,394.19Z" style="fill: rgb(224, 224, 224); transform-origin: 128.276px 408.528px;" id="elbtskp1n307w" class="animable"></path><path d="M111.07,422.22a17.23,17.23,0,1,0,17.47-17A17.24,17.24,0,0,0,111.07,422.22Z" style="fill: rgb(38, 50, 56); transform-origin: 128.298px 422.448px;" id="elmar4c9ms2so" class="animable"></path><path d="M45.6,435.44c-.14,0-.26-55.18-.26-123.23S45.46,189,45.6,189s.26,55.17.26,123.25S45.74,435.44,45.6,435.44Z" style="fill: rgb(38, 50, 56); transform-origin: 45.6px 312.22px;" id="elwgi72ln7o9" class="animable"></path><path d="M54.89,171.36c0-.14,111.68-.26,249.41-.26s249.43.12,249.43.26-111.65.26-249.43.26S54.89,171.51,54.89,171.36Z" style="fill: rgb(38, 50, 56); transform-origin: 304.31px 171.36px;" id="el9c6a1haesau" class="animable"></path><path d="M319.76,354.64c-.14,0-.26-36.59-.26-81.72s.12-81.72.26-81.72.26,36.58.26,81.72S319.91,354.64,319.76,354.64Z" style="fill: rgb(38, 50, 56); transform-origin: 319.76px 272.92px;" id="ela4lxqt8ypw4" class="animable"></path><path d="M445.59,333.65c-.15,0-.26-31.89-.26-71.22s.11-71.23.26-71.23.26,31.88.26,71.23S445.73,333.65,445.59,333.65Z" style="fill: rgb(38, 50, 56); transform-origin: 445.59px 262.425px;" id="ellgp1dvs2y3m" class="animable"></path><path d="M361.65,317.32c-.12-.08,12.6-18.67,28.39-41.52s28.7-41.31,28.82-41.23-12.59,18.67-28.39,41.53S361.77,317.4,361.65,317.32Z" style="fill: rgb(38, 50, 56); transform-origin: 390.255px 275.945px;" id="ely5aibfw523" class="animable"></path><path d="M343.87,325.76c-.11-.08,13.52-19.34,30.44-43S405.06,240,405.18,240s-13.51,19.34-30.44,43S344,325.85,343.87,325.76Z" style="fill: rgb(38, 50, 56); transform-origin: 374.525px 282.88px;" id="el0qr4zrx9r8b" class="animable"></path><path d="M460.15,293.93c-.11-.09,14.35-16.82,32.3-37.36s32.59-37.13,32.7-37-14.35,16.82-32.31,37.37S460.26,294,460.15,293.93Z" style="fill: rgb(38, 50, 56); transform-origin: 492.65px 256.75px;" id="elkiv5i0maf9" class="animable"></path><path d="M473.52,296.19c-.11-.1,14.09-15.57,31.71-34.55s32-34.29,32.1-34.19S523.24,243,505.62,262,473.62,296.29,473.52,296.19Z" style="fill: rgb(38, 50, 56); transform-origin: 505.425px 261.82px;" id="elmq8toyy668" class="animable"></path><path d="M319.76,354.53v83.55H455a46.28,46.28,0,1,1,89.26-17.16c0,6.07-2,12-4.09,17.3l19.11.08V354.53Z" style="fill: rgb(40, 42, 54); transform-origin: 439.52px 396.415px;" id="elcoey8ky5yw" class="animable"></path><path d="M436.84,410.27H420a6.46,6.46,0,0,1-6.46-6.46h0a6.46,6.46,0,0,1,6.46-6.45h16.88a6.45,6.45,0,0,1,6.45,6.45h0A6.46,6.46,0,0,1,436.84,410.27Z" style="fill: rgb(255, 255, 255); transform-origin: 428.435px 403.815px;" id="eleie64bj4g6e" class="animable"></path><path d="M436.84,410.27a8.28,8.28,0,0,0,2.78-.75,6.45,6.45,0,0,0,2.47-2.21,6.37,6.37,0,0,0,1-4.22,6.24,6.24,0,0,0-5.43-5.44c-1-.11-2.11,0-3.21,0l-14.46,0a6.2,6.2,0,0,0-4.87,10.05,6.34,6.34,0,0,0,2.46,1.89,7,7,0,0,0,2.91.49l5.5,0,8,.09,2.17,0a3.7,3.7,0,0,1,.75.06,4.41,4.41,0,0,1-.75.05l-2.17.05-8,.08-5.5,0a7.51,7.51,0,0,1-3.09-.5A6.7,6.7,0,0,1,420,397.1l14.46,0c1.12,0,2.17-.05,3.27.07a6.63,6.63,0,0,1,5.74,5.86,6.59,6.59,0,0,1-1.1,4.42,6.43,6.43,0,0,1-2.63,2.23,6.2,6.2,0,0,1-2.1.57,3.79,3.79,0,0,1-.57,0Z" style="fill: rgb(38, 50, 56); transform-origin: 428.477px 403.754px;" id="ely96zctcvff" class="animable"></path><rect x="184.03" y="189.38" width="67.78" height="248.7" style="fill: rgb(40, 42, 54); transform-origin: 217.92px 313.73px;" id="el9330vgedb2m" class="animable"></rect><path d="M251.81,438.08s0-.42,0-1.24,0-2,0-3.64c0-3.2,0-7.92,0-14,0-12.21,0-30-.07-52.17,0-44.38-.07-106.52-.12-177.62l.25.25H184l.26-.26c0,101.49-.07,191.8-.1,248.7l-.16-.16L234,438l13.27,0,3.42,0h1.17l-1.13,0-3.4,0-13.24,0-50,.08h-.16v-.16c0-56.9-.06-147.21-.1-248.7v-.26h68.3v.25c0,71.17-.09,133.38-.12,177.8,0,22.17,0,39.91-.07,52.11,0,6.08,0,10.79,0,14,0,1.59,0,2.79,0,3.61S251.81,438.08,251.81,438.08Z" style="fill: rgb(38, 50, 56); transform-origin: 217.98px 313.53px;" id="el1e74x777cg2" class="animable"></path><rect x="194.6" y="198.4" width="47.44" height="156.13" rx="12.47" style="fill: rgb(69, 90, 100); transform-origin: 218.32px 276.465px;" id="elyie7e1yni7k" class="animable"></rect><path d="M229.57,354.53s.33,0,1-.08a13.23,13.23,0,0,0,2.84-.59,12.29,12.29,0,0,0,4.11-2.29,12.53,12.53,0,0,0,3.64-5.21,11.26,11.26,0,0,0,.75-3.74c0-1.34,0-2.77,0-4.26,0-3,0-6.19,0-9.65,0-6.94,0-14.83,0-23.55,0-17.46,0-38.23-.06-61.3q0-8.66,0-17.72V212.35a16.27,16.27,0,0,0-.42-4.58,12.18,12.18,0,0,0-9.78-8.93,30.34,30.34,0,0,0-4.79-.18H207.09A12.22,12.22,0,0,0,194.86,211v19.16c0,12.55,0,24.66,0,36.2,0,23.07,0,43.85-.05,61.3,0,4.36,0,8.52,0,12.45,0,1,0,1.95,0,2.89a13.7,13.7,0,0,0,.5,2.73,12.52,12.52,0,0,0,2.62,4.58,12.33,12.33,0,0,0,8.37,4.06c2.95.09,5.68,0,8.11.07l11.24,0,2.92,0,1,0-1,0-2.92,0-11.24.05c-2.44,0-5.14.05-8.12,0a12.6,12.6,0,0,1-8.58-4.12,12.4,12.4,0,0,1-3.22-7.48c-.07-1-.05-1.93-.05-2.91,0-3.93,0-8.09,0-12.45,0-17.45,0-38.23-.06-61.3,0-11.54,0-23.65,0-36.2q0-9.42,0-19.16a12.8,12.8,0,0,1,3.65-9,12.67,12.67,0,0,1,9.1-3.82H226.8a30.79,30.79,0,0,1,4.88.19,12.68,12.68,0,0,1,10.18,9.31,16.36,16.36,0,0,1,.43,4.71v13.79q0,9.06,0,17.72c0,23.07,0,43.84-.06,61.3,0,8.72,0,16.61,0,23.55,0,3.46,0,6.69,0,9.65,0,1.49,0,2.91,0,4.27a11.63,11.63,0,0,1-.78,3.8,12.46,12.46,0,0,1-7.9,7.53,12.86,12.86,0,0,1-2.88.54Z" style="fill: rgb(38, 50, 56); transform-origin: 218.347px 276.277px;" id="eli1wwcvq539" class="animable"></path><path d="M319.93,438.08s0-.42,0-1.24,0-2,0-3.64c0-3.2,0-7.92,0-14,0-12.21,0-30-.07-52.17,0-44.38-.07-106.52-.11-177.62l.25.25H252.15l.26-.26c0,101.49-.08,191.8-.1,248.7l-.16-.16,49.91.09,13.28,0,3.42,0h1.17l-1.14,0-3.39,0-13.24,0-50,.08H252v-.16c0-56.9-.06-147.21-.1-248.7v-.26h68.3v.25c-.05,71.17-.09,133.38-.12,177.8,0,22.17-.06,39.91-.07,52.11,0,6.08,0,10.79,0,14,0,1.59,0,2.79,0,3.61S319.93,438.08,319.93,438.08Z" style="fill: rgb(38, 50, 56); transform-origin: 286.05px 313.55px;" id="elj08vxnia15n" class="animable"></path><rect x="262.72" y="198.4" width="47.44" height="156.13" rx="12.2" style="fill: rgb(69, 90, 100); transform-origin: 286.44px 276.465px;" id="elsziohy4x2y" class="animable"></rect><path d="M298,354.53a14.31,14.31,0,0,0,3.83-.68,11.69,11.69,0,0,0,4.08-2.35,12.18,12.18,0,0,0,3.54-5.29,12.61,12.61,0,0,0,.63-3.77c0-1.35,0-2.77,0-4.26,0-3,0-6.2,0-9.67,0-6.94,0-14.84,0-23.58,0-17.47,0-38.27-.05-61.37q0-8.66,0-17.74,0-4.53,0-9.16V212a15.24,15.24,0,0,0-.44-4.58,12,12,0,0,0-10-8.67c-1.55-.17-3.2-.08-4.81-.1H274.93a11.87,11.87,0,0,0-8.68,3.75,12.12,12.12,0,0,0-3.27,8.76q0,9.75,0,19.18c0,12.57,0,24.69,0,36.25,0,23.1,0,43.9-.06,61.37q0,6.55,0,12.46a16.23,16.23,0,0,0,.59,5.62,12.26,12.26,0,0,0,2.69,4.54,11.93,11.93,0,0,0,8.5,3.8l8.12,0,11.25,0,2.93,0,1,0-1,0-2.93,0-11.25.05h-8.13a12.22,12.22,0,0,1-8.7-3.85,12.64,12.64,0,0,1-2.78-4.64c-.14-.44-.24-.91-.36-1.37s-.17-.94-.2-1.43c-.07-1-.05-1.93-.06-2.92q0-5.9,0-12.46c0-17.47,0-38.27,0-61.37,0-11.56,0-23.68,0-36.25V211.17a12.63,12.63,0,0,1,3.41-9.12,12.4,12.4,0,0,1,9.06-3.91h19.74c1.62,0,3.23-.07,4.88.11a12.35,12.35,0,0,1,4.62,1.56,12.5,12.5,0,0,1,5.78,7.48,15.81,15.81,0,0,1,.46,4.72v13.81q0,9.08,0,17.74c0,23.1,0,43.9-.06,61.37,0,8.74,0,16.64,0,23.58,0,3.47,0,6.7,0,9.67,0,1.49,0,2.91,0,4.27a12.58,12.58,0,0,1-.66,3.82,12.28,12.28,0,0,1-3.63,5.35,11.69,11.69,0,0,1-4.14,2.32,12,12,0,0,1-2.88.56Z" style="fill: rgb(38, 50, 56); transform-origin: 286.572px 276.328px;" id="elyathwzurb0o" class="animable"></path><path d="M120.44,282.07c-.12-.08,8.28-12.79,18.77-28.38s19.09-28.18,19.2-28.1-8.28,12.78-18.77,28.39S120.56,282.16,120.44,282.07Z" style="fill: rgb(38, 50, 56); transform-origin: 139.425px 253.83px;" id="eljqd03dnkppj" class="animable"></path><path d="M104.1,282.07l.12-.22.4-.64,1.56-2.41c1.36-2.09,3.36-5.1,5.88-8.78,5-7.38,12.1-17.48,20-28.59s15-21.17,20.09-28.5l6-8.68,1.64-2.36.43-.61c.1-.13.16-.2.17-.19a1.32,1.32,0,0,1-.12.22l-.4.64-1.55,2.41c-1.37,2.09-3.37,5.1-5.89,8.78-5,7.38-12.1,17.48-20,28.59s-15,21.17-20.09,28.5l-6,8.68-1.63,2.36-.44.61C104.17,282,104.11,282.08,104.1,282.07Z" style="fill: rgb(38, 50, 56); transform-origin: 132.245px 241.58px;" id="elbjnwtnoq6s" class="animable"></path><path d="M401,396.41a2.05,2.05,0,0,1,.57,0,3.09,3.09,0,0,1,1.51.7,3.2,3.2,0,0,1,1.13,2.43c0,1.07,0,2.31,0,3.7,0,5.58.05,13.63.08,23.56,0,2.49,0,5.1,0,7.81a3.41,3.41,0,0,1-2.22,3.46,3.45,3.45,0,0,1-1.11.19h-3.25l-18.67,0-42.8,0a3.37,3.37,0,0,1-2.67-1.29,3.44,3.44,0,0,1-.65-1.38,6.61,6.61,0,0,1-.08-1.45V417.71c0-3.58,0-7.09,0-10.54v-5.11c0-.84,0-1.68,0-2.51a3.36,3.36,0,0,1,3.38-3.37h7.16l9.07,0,16.28,0,23.56.08,6.41.05,1.66,0,.57,0-.57,0-1.66,0-6.41,0-23.56.08-16.28,0H336.32a2.9,2.9,0,0,0-2.9,2.9v2.51c0,1.69,0,3.39,0,5.11v10.54c0,3.58,0,7.22,0,10.92v5.59a5.81,5.81,0,0,0,.07,1.34,2.83,2.83,0,0,0,.55,1.16,2.87,2.87,0,0,0,2.26,1.1l42.8,0,18.67,0H400a5.88,5.88,0,0,0,2-.17,3,3,0,0,0,2-3.06c0-2.71,0-5.32,0-7.81,0-9.93.07-18,.08-23.56,0-1.39,0-2.63,0-3.7a3.1,3.1,0,0,0-1-2.35,3.23,3.23,0,0,0-1.46-.73C401.23,396.42,401,396.43,401,396.41Z" style="fill: rgb(38, 50, 56); transform-origin: 368.565px 417.22px;" id="eltpxmk9y51um" class="animable"></path><path d="M340.58,438.08c-.14,0-.26-9.31-.26-20.79s.12-20.8.26-20.8.26,9.31.26,20.8S340.73,438.08,340.58,438.08Z" style="fill: rgb(38, 50, 56); transform-origin: 340.58px 417.285px;" id="ellmc3j9xqmpn" class="animable"></path><path d="M348.43,438.08c-.14,0-.26-9.31-.26-20.79s.12-20.8.26-20.8.26,9.31.26,20.8S348.57,438.08,348.43,438.08Z" style="fill: rgb(38, 50, 56); transform-origin: 348.43px 417.285px;" id="elg0077k0ctj" class="animable"></path><path d="M356.28,438.08c-.15,0-.26-9.31-.26-20.79s.11-20.8.26-20.8.26,9.31.26,20.8S356.42,438.08,356.28,438.08Z" style="fill: rgb(38, 50, 56); transform-origin: 356.28px 417.285px;" id="elk4niq6cdytm" class="animable"></path><path d="M364.13,438.08c-.15,0-.26-9.31-.26-20.79s.11-20.8.26-20.8.26,9.31.26,20.8S364.27,438.08,364.13,438.08Z" style="fill: rgb(38, 50, 56); transform-origin: 364.13px 417.285px;" id="elmzel44pw56" class="animable"></path><path d="M372,438.08c-.15,0-.26-9.31-.26-20.79s.11-20.8.26-20.8.26,9.31.26,20.8S372.12,438.08,372,438.08Z" style="fill: rgb(38, 50, 56); transform-origin: 372px 417.285px;" id="ela6v6c4cbpq" class="animable"></path><path d="M379.82,438.08c-.14,0-.26-9.31-.26-20.79s.12-20.8.26-20.8.27,9.31.27,20.8S380,438.08,379.82,438.08Z" style="fill: rgb(38, 50, 56); transform-origin: 379.825px 417.285px;" id="elxxjv741wcx" class="animable"></path><path d="M387.67,438.08c-.14,0-.26-9.31-.26-20.79s.12-20.8.26-20.8.26,9.31.26,20.8S387.82,438.08,387.67,438.08Z" style="fill: rgb(38, 50, 56); transform-origin: 387.67px 417.285px;" id="elz8d5nppvey" class="animable"></path><path d="M395.52,438.08c-.14,0-.26-9.31-.26-20.79s.12-20.8.26-20.8.26,9.31.26,20.8S395.67,438.08,395.52,438.08Z" style="fill: rgb(38, 50, 56); transform-origin: 395.52px 417.285px;" id="elrm3fnqyouk" class="animable"></path><rect x="319.93" y="188.7" width="238.65" height="30.07" style="fill: rgb(38, 50, 56); transform-origin: 439.255px 203.735px;" id="el9uld7p5l3gh" class="animable"></rect><rect x="45.26" y="188.7" width="138.62" height="30.07" style="fill: rgb(38, 50, 56); transform-origin: 114.57px 203.735px;" id="elrulmzf2ytki" class="animable"></rect><path d="M716.4,270.27c-.14,0-.26-13.1-.26-29.25s.12-29.25.26-29.25.26,13.09.26,29.25S716.55,270.27,716.4,270.27Z" style="fill: rgb(38, 50, 56); transform-origin: 716.4px 241.02px;" id="elernyxlb19bw" class="animable"></path><path d="M52.59,373.93c-.14,0-.26-16.82-.26-37.57s.12-37.57.26-37.57.26,16.82.26,37.57S52.74,373.93,52.59,373.93Z" style="fill: rgb(255, 255, 255); transform-origin: 52.59px 336.36px;" id="el1tt2iqx7wg6i" class="animable"></path><path d="M210.16,284.93a11.06,11.06,0,0,1-1.6,3.06,11.74,11.74,0,0,1-2,2.78,11.21,11.21,0,0,1,1.6-3.06A12,12,0,0,1,210.16,284.93Z" style="fill: rgb(255, 255, 255); transform-origin: 208.36px 287.85px;" id="elugfw1pkq82r" class="animable"></path><path d="M229.13,271.07a2.08,2.08,0,0,1-.21.45l-.66,1.24c-.59,1.07-1.48,2.6-2.59,4.48-2.24,3.75-5.45,8.87-9.22,14.36s-7.41,10.32-10.12,13.75c-1.36,1.72-2.47,3.09-3.26,4l-.92,1.07a2,2,0,0,1-.34.35s.07-.16.26-.42l.84-1.13,3.13-4.11c2.63-3.48,6.2-8.34,10-13.82s7-10.56,9.33-14.26l2.73-4.39.75-1.19C229,271.2,229.11,271.06,229.13,271.07Z" style="fill: rgb(255, 255, 255); transform-origin: 215.47px 290.92px;" id="elia0yitwamla" class="animable"></path><path d="M294.23,251.49c.12.08-4.5,7.66-10.32,16.94s-10.64,16.74-10.76,16.66,4.5-7.66,10.32-16.94S294.11,251.41,294.23,251.49Z" style="fill: rgb(255, 255, 255); transform-origin: 283.69px 268.29px;" id="ellvxbvvxukn" class="animable"></path><path d="M302.35,257.38c.12.07-6.55,11.19-14.91,24.83s-15.22,24.64-15.35,24.56,6.55-11.19,14.91-24.83S302.23,257.3,302.35,257.38Z" style="fill: rgb(255, 255, 255); transform-origin: 287.22px 282.075px;" id="elqngnls10lbq" class="animable"></path><path d="M188.28,344.75c-.14,0-.26-27.6-.26-61.64s.12-61.64.26-61.64.26,27.59.26,61.64S188.42,344.75,188.28,344.75Z" style="fill: rgb(255, 255, 255); transform-origin: 188.28px 283.11px;" id="els7wld3uyhop" class="animable"></path><path d="M199.22,178.43c0,.14-32.33.26-72.21.26s-72.23-.12-72.23-.26,32.33-.26,72.23-.26S199.22,178.28,199.22,178.43Z" style="fill: rgb(255, 255, 255); transform-origin: 127px 178.43px;" id="el9dgr4jeti94" class="animable"></path><path d="M353.14,178.43c0,.14-12.08.26-27,.26s-27-.12-27-.26,12.08-.26,27-.26S353.14,178.28,353.14,178.43Z" style="fill: rgb(255, 255, 255); transform-origin: 326.14px 178.43px;" id="elcrzyctuwo4v" class="animable"></path><path d="M327.61,414.78c-.14,0-.26-15-.26-33.55s.12-33.56.26-33.56.26,15,.26,33.56S327.76,414.78,327.61,414.78Z" style="fill: rgb(255, 255, 255); transform-origin: 327.61px 381.225px;" id="elmspisrrszpj" class="animable"></path><path d="M254.66,425.73c-.14,0-.26-20.09-.26-44.87s.12-44.86.26-44.86.26,20.08.26,44.86S254.81,425.73,254.66,425.73Z" style="fill: rgb(255, 255, 255); transform-origin: 254.66px 380.865px;" id="elqcsjxi9nfao" class="animable"></path><path d="M518,167.49c0,.14-31.85.26-71.12.26s-71.13-.12-71.13-.26,31.84-.26,71.13-.26S518,167.34,518,167.49Z" style="fill: rgb(255, 255, 255); transform-origin: 446.875px 167.49px;" id="elkdcgns0hdt" class="animable"></path><path d="M673.39,182.08c0,.14-25.48.26-56.9.26s-56.9-.12-56.9-.26,25.47-.26,56.9-.26S673.39,181.93,673.39,182.08Z" style="fill: rgb(255, 255, 255); transform-origin: 616.49px 182.08px;" id="el9nefoxtmnpw" class="animable"></path><rect x="566.82" y="188.74" width="96.2" height="249.34" style="fill: rgb(250, 250, 250); transform-origin: 614.92px 313.41px;" id="elxb61i2fzmfa" class="animable"></rect><path d="M663,438.08s0-.42,0-1.23,0-2,0-3.59c0-3.17,0-7.84,0-13.9,0-12.11,0-29.75-.07-51.91,0-44.27-.07-106.58-.12-178.71l.25.25H566.82l.27-.26c0,98.26-.07,186.92-.09,249.34l-.18-.18,70.47.1,19.08.05h5l1.7,0s-.56,0-1.66,0l-4.93,0-19,.05-70.58.09h-.18v-.18c0-62.42,0-151.08-.08-249.34v-.26h96.72v.25c0,72.2-.09,134.56-.12,178.88,0,22.13,0,39.76-.07,51.86,0,6,0,10.69,0,13.84,0,1.57,0,2.76,0,3.56S663,438.08,663,438.08Z" style="fill: rgb(38, 50, 56); transform-origin: 615px 313.29px;" id="elim691o1ct3o" class="animable"></path><polygon points="700.91 349.09 670.54 349.08 670.54 188.96 701.34 188.96 700.91 349.09" style="fill: rgb(250, 250, 250); transform-origin: 685.94px 269.025px;" id="elhepv3v4nkub" class="animable"></polygon><path d="M700.91,349.09s0-.28,0-.82,0-1.33,0-2.37c0-2.09,0-5.15,0-9.11,0-7.94,0-19.44,0-33.78.05-28.66.12-68.65.19-114l.26.26h-30.8l.26-.26c0,67.38-.09,126.56-.12,160.12l-.14-.14,22.4.08,5.92,0h1.53l.52,0h-.5l-1.5,0-5.89,0-22.48.07h-.14v-.14c0-33.56-.07-92.74-.12-160.12v-.26H701.6V189c-.16,45.47-.31,85.53-.41,114.23-.07,14.32-.13,25.8-.17,33.72,0,3.93,0,7-.06,9.06,0,1,0,1.8,0,2.33S700.91,349.09,700.91,349.09Z" style="fill: rgb(38, 50, 56); transform-origin: 685.95px 268.88px;" id="elo7d4yppafsl" class="animable"></path><path d="M649.71,276.76c0-.07,1,.24,3.73.34s7.88-.49,8.52-.44,8,.44,8,.44-1.71,1.58-3.1,1.4a26.17,26.17,0,0,0-4.1.06l-1-.05,2.25,1.62-.64,7.29a.71.71,0,0,1-1.07-.19,3.58,3.58,0,0,1-.21-2.11l-1,3.2s-1,.4-1.57-.27a1.66,1.66,0,0,1-.12-1.58l-.27-2.84-2.19-2.3-2.62.87,1.39,3.16s1.38,2.84,1.07,3.11-.61,1.26-1.39.21-1-2-1.85-2.4-5.35-3.17-6.12-5.41Z" style="fill: rgb(255, 191, 157); transform-origin: 658.69px 282.905px;" id="elc65sruj5ayt" class="animable"></path><path d="M601.8,252.49a16.23,16.23,0,0,1,3.7,2.64c1.19,1.32,17.85,12.67,17.85,12.67l19.87,5.71,8.13,3.34-2.52,7.41-8.07-1.85s-9.39-1.06-15.08-1.59a21.85,21.85,0,0,1-8.87-2.51l-11.31-6.49-4.7-13.49Z" style="fill: rgb(40, 42, 54); transform-origin: 626.075px 268.375px;" id="el5rw21lut184" class="animable"></path><polyline points="633.93 340.14 622.11 368.79 561.5 368.79 561.5 340.14 633.4 339.22" style="fill: rgb(224, 224, 224); transform-origin: 597.715px 354.005px;" id="el4qh49g6cyr2" class="animable"></polyline><path d="M581.09,308.07a20.59,20.59,0,0,0,13.67,13.32c10.94,3.25,46.21,1.44,46.21,1.44l5.19,35.83,16.89-2.32s-8-42.51-7.93-45.56c.07-4.76-2-8.13-7-8.12-3.05,0-37.26-2-37.26-2l-5.33-4-22.71,8.43Z" style="fill: rgb(38, 50, 56); transform-origin: 622.07px 327.66px;" id="el5adzbxgao8b" class="animable"></path><path d="M632.41,333.65s3.87-.3,4-4.15c0-1.86,0-4.38,0-6.48a4.05,4.05,0,0,0-4-4H581.09l-4.1,2.19-1.13,6.05,2.08,5.24Z" style="fill: rgb(69, 90, 100); transform-origin: 606.135px 326.335px;" id="el5eidy5korj4" class="animable"></path><path d="M608.92,220.61c-1-1.17-2.27-2.3-2.59-3.83s.26-3-.43-4.23c-.85-1.55-3.11-1.76-4.15-3.18-.5-.69-.65-1.59-1.15-2.29a4.25,4.25,0,0,0-3.94-1.35c-1.45.14-2.84.66-4.3.75-2,.13-4-.52-6,0-2.11.62-3.41,2.49-4.79,4.29l-1.8,2.09a8.56,8.56,0,0,1-1.2,1,14.72,14.72,0,0,0-2.27,1.43,3.54,3.54,0,0,0,.21,5.09,3.79,3.79,0,0,0-2.56,3.69,11.14,11.14,0,0,0,.68,2.56,3.81,3.81,0,0,1,.06,2.6,1.66,1.66,0,0,1-2.17.92,4,4,0,0,0,2.15,2.66,2.38,2.38,0,0,1-1.6.7c1.61,3.8,6,5.81,10.12,5.85s8.08-1.52,11.91-3.05l11.12-2.85c1-.22,1.38-1.4,1.37-2.41a8,8,0,0,1,.1-3c.5-1.28,2-2,2.5-3.23C610.82,223.41,609.94,221.79,608.92,220.61Z" style="fill: rgb(38, 50, 56); transform-origin: 591.461px 222.51px;" id="elpo6c1ao7dml" class="animable"></path><path d="M582.61,230.67a45.5,45.5,0,0,1-1.94-7.66,15.94,15.94,0,0,1,.68-7.79c.14-.38,1.35-2.88,1.74-2.84s-.46,2.37-.32,2.62a13.49,13.49,0,0,1,1.47,7.91,36.09,36.09,0,0,1-1.63,7.76" style="fill: rgb(38, 50, 56); transform-origin: 582.4px 221.525px;" id="eledomwmxtsvd" class="animable"></path><path d="M582.42,220.61c-.17-6.61,3.53-12.21,10.15-12.2l.61,0A11.82,11.82,0,0,1,604.28,220c.11,5.72.16,12.06-.06,15.11-.46,6.33-6.85,6.93-6.85,6.93s.15,10.41.15,10.41l-15.46-9.73Z" style="fill: rgb(255, 191, 157); transform-origin: 593.217px 230.43px;" id="elrrnkfuzhye8" class="animable"></path><path d="M597.37,242.05a15.34,15.34,0,0,1-8.1-2.94,8,8,0,0,0,8.07,5.07Z" style="fill: rgb(255, 154, 108); transform-origin: 593.32px 241.657px;" id="el43pv9tqtkhy" class="animable"></path><path d="M600.7,225.38a.9.9,0,0,1-.93.86.86.86,0,0,1-.88-.87.91.91,0,0,1,.92-.86A.88.88,0,0,1,600.7,225.38Z" style="fill: rgb(38, 50, 56); transform-origin: 599.795px 225.375px;" id="el6cyn2lqb6po" class="animable"></path><path d="M602.76,222.55c-.11.11-.77-.44-1.74-.49s-1.72.38-1.82.26.08-.26.41-.47a2.52,2.52,0,0,1,1.46-.36,2.44,2.44,0,0,1,1.38.54C602.73,222.28,602.82,222.5,602.76,222.55Z" style="fill: rgb(38, 50, 56); transform-origin: 600.975px 222.025px;" id="elb84etf40h55" class="animable"></path><path d="M592.34,225a.9.9,0,0,1-.93.86.86.86,0,0,1-.88-.87.91.91,0,0,1,.93-.86A.86.86,0,0,1,592.34,225Z" style="fill: rgb(38, 50, 56); transform-origin: 591.435px 224.995px;" id="elek4dxequdfl" class="animable"></path><path d="M593.21,222.37c-.12.11-.77-.44-1.75-.5s-1.71.39-1.81.26.08-.26.4-.46a2.47,2.47,0,0,1,1.46-.36,2.38,2.38,0,0,1,1.39.54C593.18,222.1,593.27,222.32,593.21,222.37Z" style="fill: rgb(38, 50, 56); transform-origin: 591.425px 221.844px;" id="elggvxb8u0jqu" class="animable"></path><path d="M596.25,230.05a6.76,6.76,0,0,1,1.59-.18c.25,0,.49-.05.54-.22a1.19,1.19,0,0,0-.12-.74c-.19-.62-.4-1.26-.62-1.94a33.65,33.65,0,0,1-1.35-5.05,31.51,31.51,0,0,1,1.76,4.93c.2.68.4,1.33.59,2a1.53,1.53,0,0,1,.07,1,.65.65,0,0,1-.44.34,1.59,1.59,0,0,1-.42,0A6.08,6.08,0,0,1,596.25,230.05Z" style="fill: rgb(38, 50, 56); transform-origin: 597.507px 226.062px;" id="el9895qb1u0sq" class="animable"></path><path d="M593.34,230.55c.16,0,.1,1.06,1,1.87s2,.75,2,.9-.27.19-.74.17a2.64,2.64,0,0,1-1.67-.69,2.3,2.3,0,0,1-.73-1.56C593.14,230.8,593.27,230.54,593.34,230.55Z" style="fill: rgb(38, 50, 56); transform-origin: 594.762px 232.022px;" id="eld1fani86u5h" class="animable"></path><path d="M593.4,218.42c-.12.25-1.08.07-2.23.14s-2.09.32-2.23.08.12-.36.5-.59a3.6,3.6,0,0,1,1.68-.48,3.7,3.7,0,0,1,1.72.31C593.25,218.07,593.45,218.29,593.4,218.42Z" style="fill: rgb(38, 50, 56); transform-origin: 591.155px 218.153px;" id="elearic887wqw" class="animable"></path><path d="M602.56,219.29c-.19.21-.84-.06-1.65-.12s-1.49.06-1.64-.18.06-.33.37-.52a2.4,2.4,0,0,1,2.65.24C602.56,219,602.64,219.19,602.56,219.29Z" style="fill: rgb(38, 50, 56); transform-origin: 600.905px 218.774px;" id="elygdv2cxij3" class="animable"></path><path d="M582.65,225.33c-.11-.05-4.27-1.55-4.4,2.78s4.26,3.57,4.27,3.45S582.65,225.33,582.65,225.33Z" style="fill: rgb(255, 191, 157); transform-origin: 580.449px 228.363px;" id="eleb3sqhluha5" class="animable"></path><path d="M581.24,229.88s-.07.05-.2.1a.74.74,0,0,1-.57,0,1.88,1.88,0,0,1-.82-1.7,2.49,2.49,0,0,1,.25-1.08.86.86,0,0,1,.58-.56.38.38,0,0,1,.44.22c.06.12,0,.21.05.21s.09-.07.06-.25a.43.43,0,0,0-.16-.27.56.56,0,0,0-.41-.13,1.08,1.08,0,0,0-.81.65,2.61,2.61,0,0,0-.3,1.21,2,2,0,0,0,1,1.9.79.79,0,0,0,.69-.1C581.23,230,581.26,229.89,581.24,229.88Z" style="fill: rgb(255, 154, 108); transform-origin: 580.294px 228.318px;" id="el3vwblnbryoe" class="animable"></path><path d="M601.61,212.76c.71-.37-1.35-2.68-3.06-3.5-2.58-1.24-6.55-2-9-1.41a10.47,10.47,0,0,0-6.85,4.76,17.08,17.08,0,0,0-2.08,8.67,5.18,5.18,0,0,0,.55,2.67c.59,1,1.74,1.6,1.66,2.92a1.83,1.83,0,0,0,.43,1.33c.78.86,1.76.09,2.22-.7a12.5,12.5,0,0,0,1.26-5.65,12.69,12.69,0,0,0-.19-4.13c-.2-.73-.53-1.42-.68-2.16a2.6,2.6,0,0,1,.35-2.16,2.46,2.46,0,0,1,.36-.34,4.49,4.49,0,0,1,4.5-.77c2.43.91,6.57,2.29,7.68,1.48a6.67,6.67,0,0,0,2-1.93Z" style="fill: rgb(38, 50, 56); transform-origin: 591.182px 218.112px;" id="elky7qfv8pqj" class="animable"></path><path d="M589.82,207.27a9.54,9.54,0,0,1,7.32.54,5,5,0,0,1,2.56,2.94,2.84,2.84,0,0,1-1.49,3.34l-.09,0a6.65,6.65,0,0,1-4.89-.36c-1.54-.57-2.9-1.56-4.45-2.12a8.87,8.87,0,0,0-5.15-.25A14.37,14.37,0,0,1,589.82,207.27Z" style="fill: rgb(38, 50, 56); transform-origin: 591.72px 210.589px;" id="el4a2cbbvljaw" class="animable"></path><path d="M581,243.58s-9.07,10.63-9,18.06c0,4,9.15,46.43,9.15,46.43l25.46-9.43a3.6,3.6,0,0,0,2.31-3.91l-3.36-22.24-3.7-20L598,249.68l-.3-2.08-.49-1-14.84-6.3Z" style="fill: rgb(40, 42, 54); transform-origin: 590.48px 274.185px;" id="elukfq06l4l2" class="animable"></path><polygon points="643.22 293.63 661.86 295.75 663.8 292.64 652.61 289.53 644.68 290.09 643.22 293.63" style="fill: rgb(38, 50, 56); transform-origin: 653.51px 292.64px;" id="elgn2g0h2cmxu" class="animable"></polygon><polygon points="677.7 276.4 673.14 292.64 677.8 292.64 684.16 274.88 677.7 276.4" style="fill: rgb(38, 50, 56); transform-origin: 678.65px 283.76px;" id="elpcejphunxyk" class="animable"></polygon><path d="M647,349.8s9-49.36,10.49-53.07,1.24-5.28,7.19-5.8,36.28,0,36.28,0v58.17l-37.89.56-.16,19.64-19.69-.93Z" style="fill: rgb(38, 50, 56); transform-origin: 672.09px 329.999px;" id="elh3hjtlvz4ec" class="animable"></path><path d="M564.88,222.84s8.19.8,9.39,4c.87,2.32.48,11.53.19,16.37a3.18,3.18,0,0,1-3.19,3h0s4.2,3.69,4.6,5.15,8.19,48.39,7.39,56.7-3.19,12.3-3.19,12.3l-15.19.8Z" style="fill: rgb(69, 90, 100); transform-origin: 574.099px 272px;" id="elbxybe7e57e" class="animable"></path><path d="M584.27,319.28c-.12-.13,10.06-26.9,12-35.58S598,249.55,598,249.55c.82,0,3.54,1.91,4.32,2.94,0,0-.34,22.94-1.48,31.77S591,321.48,591,321.48Z" style="fill: rgb(38, 50, 56); transform-origin: 593.294px 285.515px;" id="el4ssssr2i538" class="animable"></path><path d="M584.27,319.28a2.29,2.29,0,0,1,.45.12l1.29.39,5,1.59-.14.07c1.69-5.76,4.51-15.08,7.51-26.83.73-2.95,1.5-6,2-9.29s.68-6.71.89-10.25c.37-7.1.58-14.64.73-22.45v-.14l.05.16a9.85,9.85,0,0,0-2-1.71,11.53,11.53,0,0,0-1.08-.69,3.42,3.42,0,0,0-1.07-.44l.27-.26c0,10.05-.1,19.57-.85,28.17a53.69,53.69,0,0,1-.92,6.25c-.47,2-1.06,3.88-1.63,5.7-1.15,3.64-2.31,7-3.38,10.05-2.15,6.1-4,11-5.22,14.34l-2,5.22a8,8,0,0,1,.41-1.38L586,314c1.2-3.39,3-8.29,5.06-14.4,1-3.06,2.19-6.41,3.32-10.05.56-1.82,1.14-3.71,1.6-5.68a53.93,53.93,0,0,0,.88-6.19c.73-8.57.85-18.09.8-28.12v-.3l.26,0a3.58,3.58,0,0,1,1.31.5c.39.22.76.46,1.13.72a10.79,10.79,0,0,1,2.09,1.82l0,.07v.24c-.14,7.82-.37,15.36-.75,22.47-.22,3.55-.41,7-.93,10.29s-1.34,6.38-2.08,9.32c-3.07,11.76-6,21.06-7.73,26.79l0,.11-.11,0L586,319.89l-1.27-.44A4.2,4.2,0,0,1,584.27,319.28Z" style="fill: rgb(69, 90, 100); transform-origin: 593.31px 285.425px;" id="el82hjoc0lonn" class="animable"></path><path d="M584.94,320c0-.47,8.93-16.91,19.55-20.61l5.88,1.72S592.85,313.63,591,321.48Z" style="fill: rgb(38, 50, 56); transform-origin: 597.655px 310.435px;" id="el78k7i1qsvsh" class="animable"></path><path d="M584.94,320a2.37,2.37,0,0,1,.43.08l1.2.25,4.41,1-.18.11a16.23,16.23,0,0,1,2.48-4.86,47.78,47.78,0,0,1,4.43-5.11,109.93,109.93,0,0,1,12.51-10.57l.08.46-.2-.06-5.68-1.66h.16a26.77,26.77,0,0,0-9.3,6.38,58.71,58.71,0,0,0-5.89,7,59.58,59.58,0,0,0-4.45,7,8.52,8.52,0,0,1,.93-2,59.67,59.67,0,0,1,3.25-5.18A56.89,56.89,0,0,1,595,305.7a27,27,0,0,1,9.45-6.54l.07,0,.09,0,5.68,1.66.19.06.51.15-.43.31A116.43,116.43,0,0,0,598,311.81a51,51,0,0,0-4.44,5,15.89,15.89,0,0,0-2.5,4.7l0,.14-.14,0-4.44-1.16-1.16-.32A1.88,1.88,0,0,1,584.94,320Z" style="fill: rgb(69, 90, 100); transform-origin: 597.965px 310.405px;" id="elg4kdq2qb7pf" class="animable"></path><path d="M580.65,249.55c-5.77,2.94-3.65,14.5-1.86,19.47,3.13,8.69,8,22.36,10.59,24.71,3.56,3.29,29,11.92,29,11.92l4.93-9.32-23.88-12.7s0-1.92-1-2.19-3.74-18.11-3.74-18.11-1-6.94-3.51-10.22" style="fill: rgb(40, 42, 54); transform-origin: 600.097px 277.6px;" id="el1u5ngeo01c" class="animable"></path><path d="M591.24,253.11a9.29,9.29,0,0,1,1.19,1.92,28.88,28.88,0,0,1,2,6.13c.32,1.36.54,2.89.82,4.55s.61,3.46.94,5.38.74,4,1.2,6.12c.24,1.07.48,2.18.82,3.27a3.92,3.92,0,0,0,.31.74c-.07,0,.2.07.33.18a1.61,1.61,0,0,1,.35.39,4,4,0,0,1,.46,1.84l-.12-.19,23.9,12.67.22.12-.12.22c-1.57,3-3.23,6.12-4.93,9.32l-.1.2-.21-.08-4.63-1.61c-4.85-1.71-9.56-3.45-14.07-5.26-2.25-.91-4.45-1.84-6.56-2.85l-1.57-.78c-.5-.3-1-.56-1.5-.89l-.71-.53a7.59,7.59,0,0,1-.6-.66,13.06,13.06,0,0,1-.93-1.44A58.08,58.08,0,0,1,585,286c-.82-2-1.57-3.86-2.27-5.72-1.41-3.7-2.66-7.18-3.79-10.35a35.29,35.29,0,0,1-2-8.88,19.87,19.87,0,0,1,.37-6.87,7.21,7.21,0,0,1,2.13-3.75,2,2,0,0,1,.51-.41l.41-.25.34-.19-.31.24-.39.27a1.78,1.78,0,0,0-.49.41,7.33,7.33,0,0,0-2,3.73,19.64,19.64,0,0,0-.28,6.79,35.16,35.16,0,0,0,2.08,8.78c1.15,3.17,2.42,6.63,3.84,10.33.71,1.84,1.47,3.75,2.29,5.69a57.45,57.45,0,0,0,2.79,5.84,6,6,0,0,0,2.1,2.46c.45.31,1,.57,1.46.86l1.54.78c2.1,1,4.29,1.91,6.54,2.81,4.5,1.8,9.21,3.54,14,5.25l4.63,1.61-.31.13,4.93-9.32.11.35-23.86-12.74-.11-.06v-.13a3.61,3.61,0,0,0-.38-1.62.93.93,0,0,0-.25-.27c-.08-.1-.16,0-.41-.27a3.55,3.55,0,0,1-.37-.87c-.35-1.12-.58-2.23-.81-3.31-.45-2.16-.82-4.21-1.16-6.14s-.61-3.73-.89-5.39-.47-3.2-.77-4.55a30.83,30.83,0,0,0-1.9-6.12,13.85,13.85,0,0,0-.79-1.49C591.33,253.28,591.24,253.11,591.24,253.11Z" style="fill: rgb(38, 50, 56); transform-origin: 600.228px 277.775px;" id="el2qnwt4qr82x" class="animable"></path><path d="M564.88,220.58s-4.64.9-5.79,4.52,0,115,0,115h74.84s1.21-8.57-6.78-10.23-35.6-.51-35.6-.51-9.71-9.46-11.88-11.37-3.07-3.4-6.14-2.85-5.36.93-5.36.93V278.79l-3.29-9.59Z" style="fill: rgb(38, 50, 56); transform-origin: 596.287px 280.34px;" id="elfxwr6qmt24w" class="animable"></path><path d="M623.62,306.46s-3.22,1.26-2.92,4.58a15.23,15.23,0,0,0,1.45,5.46l5,51.33h4.31l-4.75-53.19,0-6.3Z" style="fill: rgb(38, 50, 56); transform-origin: 626.07px 337.145px;" id="elkz5umvmdbuj" class="animable"></path><path d="M623.62,306.46s.07,0,.21.1l.6.33,2.36,1.37,0,0v0c0,1.6,0,3.73,0,6.3h0c1,11.11,2.81,30.7,4.87,53.18l0,.28h-4.83l0-.23c-2-21.32-3.81-40-4.9-51.34l0,.05a15.48,15.48,0,0,1-1.34-4.7,6.76,6.76,0,0,1,0-2,4.49,4.49,0,0,1,.63-1.54,5.16,5.16,0,0,1,1.65-1.55,4.09,4.09,0,0,1,.52-.26c.11,0,.18-.07.18-.06l-.17.1c-.11.06-.28.15-.49.29a5.39,5.39,0,0,0-1.56,1.56,4.23,4.23,0,0,0-.57,1.5,6.72,6.72,0,0,0,.07,1.93,15.6,15.6,0,0,0,1.38,4.59v.06c1.13,11.34,3,30,5.12,51.32l-.26-.24h4.31l-.25.29c-2-22.5-3.67-42.09-4.63-53.21h0c0-2.57,0-4.7.07-6.3l0,.07L624.41,307l-.59-.38Z" style="fill: rgb(69, 90, 100); transform-origin: 626.088px 337.204px;" id="el8uioyjfia1l" class="animable"></path><path d="M597.29,246.84a2.81,2.81,0,0,1,0,1.19,9.39,9.39,0,0,1-1,3.05l-.08.16-.18-.07c-1.59-.62-3.54-1.44-5.61-2.41-2.62-1.21-4.94-2.42-6.59-3.34a15.85,15.85,0,0,1-2.6-1.62,21.29,21.29,0,0,1,2.77,1.29c1.69.84,4,2,6.64,3.2,2.06,1,4,1.81,5.55,2.49l-.27.1A14.7,14.7,0,0,0,597.29,246.84Z" style="fill: rgb(38, 50, 56); transform-origin: 589.292px 247.52px;" id="elv3oi5tvyo1k" class="animable"></path><path d="M603.52,258.22a4.56,4.56,0,0,1,.2,1.15c.12.86.25,1.91.42,3.15.35,2.66.88,6.33,1.5,10.37s1.17,7.59,1.6,10.36c.18,1.25.32,2.3.44,3.15a5.35,5.35,0,0,1,.1,1.17,5,5,0,0,1-.3-1.14l-.6-3.12c-.49-2.64-1.13-6.29-1.75-10.34s-1.1-7.73-1.36-10.41c-.13-1.33-.21-2.42-.25-3.17A5.87,5.87,0,0,1,603.52,258.22Z" style="fill: rgb(38, 50, 56); transform-origin: 605.636px 272.895px;" id="elsnmekzjaaf7" class="animable"></path><g id="elpww8rye5u6"><rect x="632.78" y="278.51" width="69.19" height="4.71" rx="2.13" style="fill: rgb(69, 90, 100); transform-origin: 667.375px 280.865px; transform: rotate(-23.63deg);" class="animable"></rect></g><path d="M635.94,309.47c0-.59-1.76-7.13-2.35-7.89s-10.87-3.69-10.82-3.79l-3.44,6.12,1.17,1a14.73,14.73,0,0,0,3.35,2.21l.93,3.32s.17,1.76.25,2.43,2.1.51,2.1.51c.42.58,2,.17,2,.17h1.61c-.67,1.34.5,1.59.5,1.59l1.85-.84c2.77-.42,1.51-2.18,1.51-2.18A11.3,11.3,0,0,0,635.94,309.47Z" style="fill: rgb(255, 191, 157); transform-origin: 627.635px 306.465px;" id="eleda9y4bckem" class="animable"></path><path d="M627.39,313.28c-.15,0,.11-1.67,0-3.7s-.52-3.63-.37-3.67a9.93,9.93,0,0,1,.36,7.37Z" style="fill: rgb(255, 154, 108); transform-origin: 627.455px 309.595px;" id="el3e9rhcydx74" class="animable"></path><path d="M630.38,313.32c-.07,0,.07-.43.16-1.1a8.3,8.3,0,0,0-.07-2.6c-.38-2-1-3.62-.86-3.68s.28.35.56,1a11.37,11.37,0,0,1,.82,2.61,6.5,6.5,0,0,1-.09,2.76C630.71,313,630.44,313.35,630.38,313.32Z" style="fill: rgb(255, 154, 108); transform-origin: 630.343px 309.628px;" id="elxhw476hh65" class="animable"></path><path d="M630.51,313.65c0-.07.43-.31,1.1-.76a2.54,2.54,0,0,0,1.32-2.46,20.35,20.35,0,0,1-.45-4.55,20,20,0,0,1,1,4.49,2.47,2.47,0,0,1-.47,1.86,3.68,3.68,0,0,1-1.18,1C631,313.59,630.53,313.71,630.51,313.65Z" style="fill: rgb(255, 154, 108); transform-origin: 632.009px 309.772px;" id="elbi3imnui29t" class="animable"></path><path d="M634.41,312.48c-.07.13-.45.07-.91.07s-.84,0-.9-.1.33-.43.91-.42S634.48,312.36,634.41,312.48Z" style="fill: rgb(255, 154, 108); transform-origin: 633.506px 312.297px;" id="elj3c2xwp354f" class="animable"></path><path d="M627,305.69c-.14-.05,0-.68-.39-1.31s-.9-.92-.86-1.07.21-.09.49,0a1.82,1.82,0,0,1,.83.79,1.75,1.75,0,0,1,.18,1.14C627.19,305.57,627.06,305.71,627,305.69Z" style="fill: rgb(255, 154, 108); transform-origin: 626.513px 304.455px;" id="elzqrlqgex0z" class="animable"></path><path d="M629.84,304.71c-.15,0-.2-.52-.45-1s-.58-.88-.5-1,.66.11,1,.79S630,304.74,629.84,304.71Z" style="fill: rgb(255, 154, 108); transform-origin: 629.472px 303.695px;" id="el4xu5md7awz3" class="animable"></path><path d="M632.11,305c-.15,0-.2-.61-.44-1.28s-.57-1.17-.46-1.27.67.3.95,1.1S632.24,305,632.11,305Z" style="fill: rgb(255, 154, 108); transform-origin: 631.745px 303.717px;" id="elkluv20l42co" class="animable"></path><rect x="559.31" y="188.96" width="7.51" height="249.34" style="fill: rgb(40, 42, 54); transform-origin: 563.065px 313.63px;" id="elazvh267r9rw" class="animable"></rect><path d="M566.82,438.3s0-.44,0-1.3,0-2.12,0-3.77c0-3.32,0-8.2,0-14.48,0-12.58,0-30.77-.08-53.29,0-45-.06-107.31-.11-176.5l.26.26h-7.51l.26-.26c-.1,121.39-.18,223.05-.2,249.34l-.06-.06,5.66,0,1.85,0s-.58,0-1.81,0l-5.7,0h-.06v-.06c0-26.29-.1-127.95-.2-249.34v-.26h8V189c0,69.27-.07,131.63-.1,176.69,0,22.5-.06,40.67-.08,53.23,0,6.26,0,11.12,0,14.42,0,1.64,0,2.89,0,3.74S566.82,438.3,566.82,438.3Z" style="fill: rgb(38, 50, 56); transform-origin: 563.12px 313.44px;" id="el5fnzt1hwdy" class="animable"></path><path d="M661.65,405.74c0,.15-21.12.26-47.17.26s-47.17-.11-47.17-.26,21.12-.26,47.17-.26S661.65,405.6,661.65,405.74Z" style="fill: rgb(38, 50, 56); transform-origin: 614.48px 405.74px;" id="elpfn7e8yuz0q" class="animable"></path><path d="M661.94,424.09c0,.15-21.18.26-47.31.26s-47.32-.11-47.32-.26,21.18-.26,47.32-.26S661.94,424,661.94,424.09Z" style="fill: rgb(38, 50, 56); transform-origin: 614.625px 424.09px;" id="eli5ivaftcoyc" class="animable"></path><path d="M663.05,368.79c0,.15-21.56.26-48.16.26s-48.16-.11-48.16-.26,21.56-.26,48.16-.26S663.05,368.65,663.05,368.79Z" style="fill: rgb(38, 50, 56); transform-origin: 614.89px 368.79px;" id="el19xcdng0q81" class="animable"></path><path d="M662.16,388c0,.14-21.21.26-47.38.26s-47.38-.12-47.38-.26,21.21-.26,47.38-.26S662.16,387.83,662.16,388Z" style="fill: rgb(38, 50, 56); transform-origin: 614.78px 388px;" id="el8s5nh7rskc8" class="animable"></path><path d="M662.16,291.28a6.06,6.06,0,0,1-.79.2,4.74,4.74,0,0,0-1.85,1.39c-1.31,1.57-2.43,4.42-3,8-1.37,7.3-3.26,17.3-5.34,28.35s-4.08,21-5.49,28.33c-.72,3.59-1.31,6.5-1.73,8.58-.2,1-.37,1.75-.49,2.32a5,5,0,0,1-.21.81,4.66,4.66,0,0,1,.11-.83q.15-.87.39-2.34c.38-2.08.91-5,1.56-8.6,1.38-7.3,3.26-17.31,5.35-28.36s4.07-21,5.49-28.32c.66-3.65,1.85-6.52,3.24-8.1a4.65,4.65,0,0,1,2-1.36c.27-.05.48-.07.62-.09S662.16,291.27,662.16,291.28Z" style="fill: rgb(69, 90, 100); transform-origin: 652.71px 330.257px;" id="elgk9d0sx2lho" class="animable"></path><polygon points="580.35 326.3 584.41 319.79 590.11 321.26 586.87 328.65 580.35 326.3" style="fill: rgb(38, 50, 56); transform-origin: 585.23px 324.22px;" id="elxe8taa9xf7" class="animable"></polygon><rect x="663.03" y="188.96" width="7.51" height="248.7" style="fill: rgb(40, 42, 54); transform-origin: 666.785px 313.31px;" id="elqzcbgw429ol" class="animable"></rect><path d="M670.54,437.66s0-.44,0-1.29,0-2.12,0-3.76c0-3.31,0-8.18,0-14.45,0-12.54-.05-30.69-.08-53.15,0-44.9-.07-107-.11-176l.26.26H663l.26-.26c-.1,121.07-.18,222.45-.2,248.7l-.06-.06,5.66,0,1.85,0s-.58,0-1.81,0l-5.7,0H663v-.06c0-26.24-.1-127.63-.2-248.7v-.26h8V189c0,69.09-.08,131.3-.1,176.24,0,22.44-.06,40.56-.08,53.09,0,6.25,0,11.09,0,14.39,0,1.63,0,2.88,0,3.73S670.54,437.66,670.54,437.66Z" style="fill: rgb(38, 50, 56); transform-origin: 666.8px 313.17px;" id="el86yyndzpcqw" class="animable"></path><path d="M590.35,322.66l-6-2.05a1.56,1.56,0,0,1-1-2h0a1.58,1.58,0,0,1,2-1l6,2.05a1.58,1.58,0,0,1,1,2h0A1.58,1.58,0,0,1,590.35,322.66Z" style="fill: rgb(40, 42, 54); transform-origin: 587.847px 320.135px;" id="elqj42k6jdacm" class="animable"></path><path d="M674.12,257.06c-.12-.07,3.94-7.11,9.07-15.7s9.39-15.52,9.51-15.44-3.93,7.1-9.06,15.7S674.24,257.13,674.12,257.06Z" style="fill: rgb(38, 50, 56); transform-origin: 683.41px 241.49px;" id="elacq4ziaxmym" class="animable"></path><path d="M674.38,244.9a8.06,8.06,0,0,1,.82-1.27l2.35-3.39c2-2.86,4.64-6.85,7.43-11.36s5.16-8.69,6.84-11.73c.8-1.46,1.46-2.68,2-3.62a9.1,9.1,0,0,1,.78-1.3,8.4,8.4,0,0,1-.6,1.4c-.41.88-1,2.14-1.83,3.69-1.59,3.1-3.92,7.31-6.71,11.84s-5.53,8.49-7.58,11.3c-1,1.4-1.88,2.53-2.49,3.29A8.17,8.17,0,0,1,674.38,244.9Z" style="fill: rgb(38, 50, 56); transform-origin: 684.49px 228.565px;" id="elhte6galr137" class="animable"></path><path d="M559.31,352.52c-.14,0-.26-36.59-.26-81.72s.12-81.73.26-81.73.26,36.59.26,81.73S559.45,352.52,559.31,352.52Z" style="fill: rgb(38, 50, 56); transform-origin: 559.31px 270.795px;" id="elikds4tt7sd" class="animable"></path></g><g id="freepik--Plant--inject-3" class="animable" style="transform-origin: 277.898px 440.14px;"><path d="M277.88,417a8.65,8.65,0,0,1,4.49,5.08A15.4,15.4,0,0,1,283,429c-.5,4.47-3,9-5.77,12.55-3.77-3.28-4.63-9-4.89-11.94-.4-4.64,1.68-13.26,5.58-12.57" style="fill: rgb(69, 90, 100); transform-origin: 277.718px 429.275px;" id="elhdqbjsnp3qv" class="animable"></path><path d="M277.19,441.59l0,0c-2.73-2.38-4.42-6.51-4.89-12-.3-3.41.79-9.56,3.25-11.81a2.72,2.72,0,0,1,2.36-.79h0a8.63,8.63,0,0,1,4.5,5.09,15.1,15.1,0,0,1,.6,6.9c-.31,2.68-1.56,7-5.78,12.56Zm.25-24.56a2.75,2.75,0,0,0-1.87.81c-2.45,2.24-3.54,8.36-3.24,11.77.47,5.41,2.15,9.53,4.85,11.9,4.21-5.5,5.46-9.84,5.76-12.51a15,15,0,0,0-.6-6.87,8.57,8.57,0,0,0-4.47-5.07A3,3,0,0,0,277.44,417Z" style="fill: rgb(38, 50, 56); transform-origin: 277.71px 429.274px;" id="el6c325v188tn" class="animable"></path><path d="M281.56,448.92a7.41,7.41,0,0,1,2.38-7,9.8,9.8,0,0,1,7.24-2.26,4.11,4.11,0,0,1,3.17,1.43,3.16,3.16,0,0,1,0,3.2A6.39,6.39,0,0,1,292,446.6c-3.26,2-6.79,3.43-10.47,2.32" style="fill: rgb(69, 90, 100); transform-origin: 288.103px 444.462px;" id="el2tbzdfjn6yz" class="animable"></path><path d="M284.22,449.34a9.28,9.28,0,0,1-2.67-.39h0a6.91,6.91,0,0,1,.24-3.83,7.88,7.88,0,0,1,2.16-3.22,9.77,9.77,0,0,1,7.25-2.26,4,4,0,0,1,3.19,1.43,3.13,3.13,0,0,1,.05,3.23,6.31,6.31,0,0,1-2.37,2.34C289.14,448.45,286.59,449.34,284.22,449.34Zm-2.64-.44c3.11.93,6.43.2,10.44-2.32a6.31,6.31,0,0,0,2.36-2.32,3.13,3.13,0,0,0-.05-3.18,4,4,0,0,0-3.15-1.41l-.84,0a9.58,9.58,0,0,0-6.38,2.28,7.77,7.77,0,0,0-2.14,3.2A6.73,6.73,0,0,0,281.58,448.9Z" style="fill: rgb(38, 50, 56); transform-origin: 288.125px 444.467px;" id="eledb0u2t2f1c" class="animable"></path><path d="M276.73,462.62a5.41,5.41,0,0,1,.14-.92c.12-.64.27-1.48.45-2.48a26,26,0,0,1,2.56-7.92,15.88,15.88,0,0,1,5.69-6.05,10.18,10.18,0,0,1,2.32-1,5.45,5.45,0,0,1,.67-.17,1,1,0,0,1,.24,0,17.67,17.67,0,0,0-3.11,1.43,16.32,16.32,0,0,0-5.52,6,27.79,27.79,0,0,0-2.62,7.81c-.23,1-.41,1.88-.56,2.46A3.91,3.91,0,0,1,276.73,462.62Z" style="fill: rgb(38, 50, 56); transform-origin: 282.765px 453.346px;" id="elbedz3q9u5vk" class="animable"></path><path d="M276.88,423.75a2.38,2.38,0,0,1,0,.4c0,.29,0,.68.07,1.15.05,1,.11,2.45.17,4.24.12,3.58.21,8.52.18,14s-.15,10.41-.3,14c-.07,1.79-.15,3.23-.21,4.23,0,.48-.06.86-.08,1.15s0,.41-.05.4a2.38,2.38,0,0,1,0-.4c0-.3,0-.68,0-1.15,0-1,.06-2.48.1-4.24.09-3.58.18-8.52.21-14s0-10.41-.09-14c0-1.76-.05-3.2-.07-4.24v-1.15A1.25,1.25,0,0,1,276.88,423.75Z" style="fill: rgb(38, 50, 56); transform-origin: 276.979px 443.535px;" id="el9r2yh52ft1d" class="animable"></path><path d="M275.05,451.64A17.29,17.29,0,0,0,265.62,439c-1.26-.61-2.9-1-3.93-.06s-.81,2.61-.3,3.91A14.75,14.75,0,0,0,275,452" style="fill: rgb(69, 90, 100); transform-origin: 268.006px 445.188px;" id="el27s5n35nmh4j" class="animable"></path><path d="M274.81,452a14.82,14.82,0,0,1-13.45-9.19c-.31-.81-.92-2.83.31-3.94.49-.45,1.67-1,4,0a17.33,17.33,0,0,1,9.44,12.68H275a16.81,16.81,0,0,0-3.18-7.46,17,17,0,0,0-6.23-5.18c-2.27-1.08-3.42-.51-3.91-.07s-1.23,1.47-.29,3.9a14.74,14.74,0,0,0,13.4,9.14H275v0Z" style="fill: rgb(38, 50, 56); transform-origin: 268.021px 445.145px;" id="el1jj783kozww" class="animable"></path><path d="M266.23,443.22a4.89,4.89,0,0,1,.79.35,8.3,8.3,0,0,1,.91.48c.33.21.74.42,1.14.72a16.19,16.19,0,0,1,1.32,1c.47.37.92.81,1.4,1.27a19.62,19.62,0,0,1,2.65,3.41,18.33,18.33,0,0,1,1.75,4,15.72,15.72,0,0,1,.44,1.84,13.27,13.27,0,0,1,.23,1.63,10.94,10.94,0,0,1,.06,1.35,6.45,6.45,0,0,1,0,1,5.22,5.22,0,0,1-.09.87c-.08,0,.05-1.24-.17-3.22a13.23,13.23,0,0,0-.26-1.6,18.36,18.36,0,0,0-.46-1.8,18.41,18.41,0,0,0-4.34-7.25,17.55,17.55,0,0,0-1.36-1.27,14.72,14.72,0,0,0-1.27-1C267.33,443.8,266.19,443.29,266.23,443.22Z" style="fill: rgb(38, 50, 56); transform-origin: 271.584px 452.18px;" id="elk6nyhurqkul" class="animable"></path></g><g id="freepik--Sign--inject-3" class="animable" style="transform-origin: 381.807px 328.556px;"><rect x="380.01" y="255.74" width="5.86" height="207.06" style="fill: rgb(224, 224, 224); transform-origin: 382.94px 359.27px;" id="ely8mjgg1pcpa" class="animable"></rect><path d="M385.86,462.79s0-.37,0-1.08,0-1.76,0-3.13c0-2.77,0-6.82,0-12,0-10.45-.05-25.56-.08-44.27,0-37.38-.06-89.1-.11-146.53l.26.26H380l.26-.26c0,101.09-.09,185.7-.2,207.05l-.06-.05,4.4,0,1.45,0s-.45,0-1.42,0l-4.43,0H380v-.06c-.12-21.35-.2-106-.2-207v-.26h6.37v.26c0,57.5-.08,109.3-.1,146.73,0,18.68-.06,33.77-.08,44.2,0,5.2,0,9.23,0,12,0,1.35,0,2.39,0,3.1S385.86,462.79,385.86,462.79Z" style="fill: rgb(38, 50, 56); transform-origin: 382.985px 359.145px;" id="eldgtqieukdmd" class="animable"></path><rect x="353.56" y="194.78" width="56.31" height="66.28" rx="3.94" style="fill: rgb(255, 255, 255); transform-origin: 381.715px 227.92px;" id="elqt7qanid3i" class="animable"></rect><path d="M405.93,261.06s.21,0,.61-.08a3.91,3.91,0,0,0,3.17-3.06,10,10,0,0,0,.07-1.85c0-.67,0-1.38,0-2.14,0-6.05,0-14.77-.08-25.54,0-5.4,0-11.3,0-17.65,0-3.17,0-6.45,0-9.82,0-.84,0-1.72,0-2.53a3.7,3.7,0,0,0-3.1-3.33,9,9,0,0,0-1.29-.05H403.9l-46.39,0a3.65,3.65,0,0,0-3.68,3.62q0,3,0,6.05v11.84c0,7.76,0,15.25,0,22.38q0,5.35,0,10.42v5c0,.82,0,1.64,0,2.44a4,4,0,0,0,.5,2.2,3.62,3.62,0,0,0,1.61,1.49,4.27,4.27,0,0,0,2.16.38h13l25.55.09,6.94,0,1.81,0c.41,0,.61,0,.61,0l-.61,0-1.81,0-6.94.05-25.55.08-8.46,0h-4.51a4.87,4.87,0,0,1-2.35-.41,4.15,4.15,0,0,1-1.79-1.66,4.4,4.4,0,0,1-.57-2.42v-2.44c0-1.63,0-3.3,0-5q0-5.07,0-10.42c0-7.13,0-14.62,0-22.38q0-5.82,0-11.84c0-2,0-4,0-6.05a4.18,4.18,0,0,1,4.2-4.14l46.39,0h1.33a7.87,7.87,0,0,1,1.36.06,4.11,4.11,0,0,1,2.41,1.28,4.25,4.25,0,0,1,1.09,2.47c0,.89,0,1.71,0,2.57,0,3.37,0,6.65,0,9.82,0,6.35,0,12.25,0,17.65,0,10.77-.07,19.49-.09,25.54,0,.76,0,1.47,0,2.14a9.54,9.54,0,0,1-.1,1.88,3.91,3.91,0,0,1-3.31,3.08A2.43,2.43,0,0,1,405.93,261.06Z" style="fill: rgb(38, 50, 56); transform-origin: 381.807px 227.673px;" id="eldbm67ulbwui" class="animable"></path><rect x="366.49" y="208.06" width="31.59" height="39.99" rx="1.45" style="fill: rgb(40, 42, 54); transform-origin: 382.285px 228.055px;" id="eljgpapxfz16q" class="animable"></rect><rect x="364.17" y="215.76" width="4.8" height="11.63" rx="1.91" style="fill: rgb(40, 42, 54); transform-origin: 366.57px 221.575px;" id="eldae8zr23uwc" class="animable"></rect><rect x="395.76" y="215.76" width="4.8" height="11.63" rx="1.91" style="fill: rgb(40, 42, 54); transform-origin: 398.16px 221.575px;" id="elqy4mcjf2nh" class="animable"></rect><rect x="370.24" y="215.76" width="24.09" height="15.07" style="fill: rgb(255, 255, 255); transform-origin: 382.285px 223.295px;" id="elf9bxhex24fg" class="animable"></rect><circle cx="391.17" cy="237.31" r="3.15" style="fill: rgb(255, 255, 255); transform-origin: 391.17px 237.31px;" id="el1v4eadc1ygn" class="animable"></circle><circle cx="373.53" cy="237.31" r="3.15" style="fill: rgb(255, 255, 255); transform-origin: 373.53px 237.31px;" id="elil6bqdosbc" class="animable"></circle><path d="M368.65,243.74h5.63a0,0,0,0,1,0,0v6.45a2.24,2.24,0,0,1-2.24,2.24h-1.15a2.24,2.24,0,0,1-2.24-2.24v-6.45A0,0,0,0,1,368.65,243.74Z" style="fill: rgb(40, 42, 54); transform-origin: 371.465px 248.085px;" id="el7q6kz6td7re" class="animable"></path><path d="M389.45,243.74h5.63a0,0,0,0,1,0,0v6.45a2.24,2.24,0,0,1-2.24,2.24h-1.15a2.24,2.24,0,0,1-2.24-2.24v-6.45A0,0,0,0,1,389.45,243.74Z" style="fill: rgb(40, 42, 54); transform-origin: 392.265px 248.085px;" id="elc0s8e6m8ykg" class="animable"></path><rect x="376.22" y="211.36" width="12.14" height="1.34" style="fill: rgb(255, 255, 255); transform-origin: 382.29px 212.03px;" id="elkwnnz1zdga" class="animable"></rect></g><defs>     <filter id="active" height="200%">         <feMorphology in="SourceAlpha" result="DILATED" operator="dilate" radius="2"></feMorphology>                <feFlood flood-color="#32DFEC" flood-opacity="1" result="PINK"></feFlood>        <feComposite in="PINK" in2="DILATED" operator="in" result="OUTLINE"></feComposite>        <feMerge>            <feMergeNode in="OUTLINE"></feMergeNode>            <feMergeNode in="SourceGraphic"></feMergeNode>        </feMerge>    </filter>    <filter id="hover" height="200%">        <feMorphology in="SourceAlpha" result="DILATED" operator="dilate" radius="2"></feMorphology>                <feFlood flood-color="#ff0000" flood-opacity="0.5" result="PINK"></feFlood>        <feComposite in="PINK" in2="DILATED" operator="in" result="OUTLINE"></feComposite>        <feMerge>            <feMergeNode in="OUTLINE"></feMergeNode>            <feMergeNode in="SourceGraphic"></feMergeNode>        </feMerge>            <feColorMatrix type="matrix" values="0   0   0   0   0                0   1   0   0   0                0   0   0   0   0                0   0   0   1   0 "></feColorMatrix>    </filter></defs></svg>